<svg version="1.1" xmlns="http://www.w3.org/2000/svg" viewBox="0 0 1932 795" width="1932" height="795">
  <!-- svg-source:excalidraw -->
  
  <defs>
    <style>
      @font-face {
        font-family: "Virgil";
        src: url("https://excalidraw.com/Virgil.woff2");
      }
      @font-face {
        font-family: "Cascadia";
        src: url("https://excalidraw.com/Cascadia.woff2");
      }
    </style>
  </defs>
  <rect x="0" y="0" width="1932" height="795" fill="#ffffff"></rect><g stroke-linecap="round" transform="translate(666 289) rotate(0 359.5 146.5)"><path d="M0.48 0.61 C287.99 -1.44, 575.4 -1.22, 719.05 0.17 M0.15 -0.37 C231.94 0.25, 464.37 0.46, 718.6 -0.12 M719.97 -1.4 C719.37 64.54, 719.43 129.35, 718.14 294.23 M718.61 -0.44 C719.39 83.56, 718.62 168.16, 718.96 292.98 M718.49 293 C565.25 292.34, 411.47 293.62, 0.25 292.22 M718.98 293.07 C519.59 293.04, 319.72 292.92, 0.31 293.03 M-1.36 292.03 C-0.07 215.68, 1.34 140.27, 0.23 -1.36 M0.57 292.34 C-1.25 230.68, -1.46 170.01, 0.04 0.3" stroke="#000000" stroke-width="1" fill="none"></path></g><g transform="translate(677 303) rotate(0 73.5 12)"><text x="0" y="17" font-family="Helvetica, Segoe UI Emoji" font-size="20px" fill="#000000" text-anchor="start" style="white-space: pre;" direction="ltr">NAIS k8s cluster</text></g><g stroke-linecap="round" transform="translate(10 317) rotate(0 142.5 189.5)"><path d="M-0.14 -0.24 C101.42 -1.4, 200.87 -2.04, 283.83 -0.35 M-0.02 0.69 C95.44 0.47, 191.16 0.74, 285.54 -0.71 M285.9 -0.21 C287.39 131.77, 285.93 262.01, 285.44 379.86 M285.37 0.03 C283.65 110.8, 283.8 221.04, 285.02 378.77 M285.7 378.18 C217.63 379.86, 150.17 380.37, 1.46 378.18 M285.73 379.73 C214.68 379.5, 142.49 380.75, 0.56 378.66 M1.18 380.16 C-0.73 273.7, -2.98 167.23, 1.2 -0.89 M-0.22 378.97 C-2.24 246.62, -2.33 114.16, 0.35 0.44" stroke="#000000" stroke-width="1" fill="none"></path></g><g transform="translate(29 324.5) rotate(0 78.5 12)"><text x="0" y="17" font-family="Helvetica, Segoe UI Emoji" font-size="20px" fill="#000000" text-anchor="start" style="white-space: pre;" direction="ltr">Developer Laptop</text></g><g stroke-linecap="round" transform="translate(30 385) rotate(0 111 29.5)"><path d="M0 0 C0 0, 0 0, 0 0 M0 0 C0 0, 0 0, 0 0 M-0.23 6.32 C1.29 3.53, 3.7 1.37, 5.25 -0.02 M-0.58 6.12 C1.24 4.35, 3.37 2.36, 5.17 -0.03 M-0.07 10.88 C3.39 6.97, 6.38 5.52, 10.11 0.26 M-0.27 11.74 C3.76 8.67, 5.21 5, 9.9 0.7 M0.47 17.7 C6.28 14.23, 8.1 7.69, 17.53 -0.8 M-0.47 17.65 C6.01 12.86, 11.19 6.31, 15.35 0.66 M1.46 22.91 C8.89 13.94, 16.44 5.8, 19.26 0.61 M0.93 24.74 C8.19 14.47, 15.81 5.08, 21.69 0.81 M0.75 30.54 C9.69 17.51, 21.8 7.83, 27.12 2.22 M0.18 31.31 C8.3 20.36, 18.72 9.25, 27.22 0.14 M0.22 38.25 C7.86 26.99, 18.3 14.08, 30.62 0.28 M0.09 36.4 C9.28 26.96, 17.98 16.29, 31.57 -0.11 M-0.72 42.75 C7.09 30.61, 19.26 20.69, 37.11 1.22 M0.74 41.77 C9.59 32.98, 18.31 22.5, 36.02 0.46 M-1.72 47.72 C14.37 32.3, 28.1 16.73, 44.41 -0.83 M-0.69 48.84 C11.42 36.8, 21.64 25.49, 41.59 -0.89 M-1.44 54.03 C10.06 42.44, 23.48 28.45, 49.03 -0.42 M-0.58 55.1 C15.99 37.97, 29.73 21.04, 47.52 0.69 M-0.71 58.6 C13.96 46.97, 23.17 30.39, 54.84 0.75 M0.33 60.17 C18.18 41.38, 33.03 23.64, 53.33 -0.64 M4.81 60.93 C17.61 47.59, 27.01 35.07, 57.25 1.38 M5.61 60.44 C22.83 39.9, 39.93 22.18, 57.34 -0.69 M12.94 60.25 C30.41 38.62, 46.67 15.38, 63.94 -1.85 M11.86 59.38 C30.09 39.28, 48.99 17.08, 64.7 0.47 M16.89 57.98 C28.45 44.83, 42.85 30.78, 67 1.31 M17.85 60.19 C29.24 45.13, 42.27 31.31, 67.93 -0.77 M20.74 58.58 C36.4 41.2, 54.09 23.89, 75.62 0.18 M22.47 59.77 C41.82 37.35, 63.27 13.93, 74.93 0.17 M28.22 59.11 C41.87 42.74, 55.95 25.12, 80.33 -1.25 M26.72 60.45 C43.37 40.89, 59.86 23.4, 79.55 0.78 M30.86 60.82 C50.18 39.16, 70.66 17.16, 85.61 1.26 M32.34 60.71 C47.87 42.6, 64.29 23.24, 85.58 -0.86 M36.67 58.66 C49.05 45.77, 62.22 32.7, 90.15 -0.27 M37.72 58.93 C58.66 37.17, 78.03 12.61, 89.3 0.7 M42.34 60.88 C57.95 43.9, 72.77 28.62, 95.48 -0.49 M42.51 60.03 C57.44 43.6, 70.57 27.49, 95.52 -0.05 M49.93 58.59 C66.37 40.91, 78.44 24.79, 102.21 -1.09 M49.65 59.28 C59.52 47.23, 70.98 35.32, 100.11 -0.83 M55.05 61.32 C71.74 36.82, 91.66 16.55, 106.66 -1.32 M53.86 60.96 C71.36 37.66, 91.56 15.92, 105.99 0.11 M59.55 58.55 C73.8 42.2, 84.39 27.57, 113.1 1.64 M59.69 60.08 C75.54 42.18, 90.67 23.02, 111.72 0.77 M63.72 59.34 C80.94 43.71, 94.9 25.09, 117.75 -1.06 M64.06 59.14 C82.25 40.05, 100.18 18.05, 116.86 -0.19 M70.93 57.82 C90.93 37.22, 109.42 15.03, 120.26 1.91 M70.3 59.82 C84.6 43.06, 99.77 25.76, 121.73 -0.46 M75.89 60.81 C93.3 40.62, 110.01 18.81, 125.18 -0.14 M74.65 59.67 C89.7 42.97, 103.28 27.38, 126.31 -0.11 M81.29 61.35 C94.53 41.46, 113.16 24.79, 131.97 0.37 M80.31 59.9 C100.57 36.75, 121.19 12.63, 132.55 -0.1 M85.99 58.26 C104.13 37.14, 121.21 17.59, 137.24 -1.09 M85.96 60.04 C102.63 41, 119.15 22.68, 137.9 -0.62 M89.72 57.73 C111.38 39.11, 129.56 17.52, 141.36 -1.68 M91.84 59.67 C106.79 41.2, 122.41 22.53, 142.4 -0.29 M97.26 60.87 C114.91 37.01, 135.06 14.27, 146.73 -1.52 M96.18 59.17 C110.81 44.21, 124.11 27.76, 148.15 -0.52 M103.13 61.23 C116.24 44.18, 133.63 23.5, 152.39 -0.27 M101.35 59.39 C118.96 40.18, 135.53 19.41, 154.37 -0.75 M107.79 60.46 C117.77 45.62, 133.07 32.33, 160.28 0.6 M106.31 60.41 C124.04 42.25, 139.78 22.13, 158.91 -0.71 M113.64 58.52 C125.41 44.94, 140.05 29.25, 165.88 1.22 M112 59.98 C126.56 44.04, 139.76 26.37, 165.33 0.23 M116.52 61.55 C133.12 41.74, 149.69 23.82, 168.39 0.98 M117.18 60.52 C129.53 46.6, 142.1 32.95, 170.38 0.86 M123.16 59.66 C136.18 41.94, 149.77 26.14, 173.47 -1.95 M123.21 61.05 C138.56 42.24, 153.11 23.33, 175.03 0.77 M129.23 59.27 C140.51 48.79, 151.71 34.23, 179.38 -1.04 M128.45 60.68 C148.12 37.28, 166.27 14.11, 180.05 0.15 M133.5 60.63 C152.51 39.93, 172.26 15.14, 187.68 -1.84 M133.77 60.36 C149.43 41.14, 165.11 23.38, 185 0.42 M140.54 61.43 C150.58 42.65, 168 28.79, 189.42 -0.44 M139.61 59.51 C154.9 39.05, 173.94 19.88, 189.77 0.04 M142.94 58.31 C154.14 46.17, 167.69 36.14, 195.84 0.13 M143.46 59.86 C161.07 39.03, 180.1 20.73, 195.63 -0.85 M147.93 58.48 C164.63 42.75, 177.71 29.08, 200.53 -0.56 M148.97 60.04 C160.58 46.3, 172.02 34.39, 200.72 -0.66 M155.63 61.25 C172.53 39.2, 191.25 21.99, 206.14 -0.79 M155.4 59.42 C173.08 37.54, 191.94 15.92, 207.12 0.34 M161.7 61.56 C177.93 40.92, 192.17 24.28, 210.56 0.91 M160.69 58.73 C170.81 47.26, 182.01 33.56, 212.37 -0.23 M163.55 59.63 C176.15 45.04, 190.8 33.46, 217.62 1.29 M165 59.83 C183.15 41.03, 199.72 19.2, 218.51 -0.19 M171.02 60.43 C188.36 37.77, 205.68 17.29, 223.23 1.97 M171.73 60.43 C182.2 46.63, 194.51 33.66, 223.57 0.98 M176.54 59.32 C187.47 45.72, 201.76 27, 224.23 7.73 M175.04 59.8 C190.6 42.85, 204.65 26.8, 222.76 5.59 M181.87 61.53 C192.48 47.06, 198.22 38.09, 222.91 11.06 M180.89 59.46 C197.15 42.05, 213.58 23.03, 222.31 12.37 M188.25 59.81 C197.72 45.7, 210.69 31.78, 222.02 18.23 M186.6 60.96 C196.3 47.7, 206.87 34.64, 222.87 17.81 M191.11 57.93 C200.07 50.53, 210.39 41.23, 222.82 25.89 M191.81 60.54 C198.66 51.08, 205.85 43.16, 222.88 24.85 M198.21 60.28 C205.35 48.99, 216.11 37.38, 223.13 29.36 M196.1 60.87 C203.28 53, 210.62 46.03, 222.95 30.29 M204.41 59.38 C210.58 49.92, 215.54 42.12, 223.52 36.17 M201.94 59.79 C207.35 53.74, 214.15 47.6, 221.43 36.58 M205.78 61.54 C213 57.37, 214.73 50.17, 221.32 42.41 M208.29 60 C211.02 55.23, 216.21 51.01, 222.7 43.26 M214 58.66 C215.45 57.78, 218.92 53.91, 223.6 50.03 M213.48 59.7 C216.44 55.56, 220.6 50.91, 222.2 48.92 M218.82 59.93 C219.27 58.53, 220.82 57.61, 221.88 55.86 M218.55 60.14 C219.21 59.16, 219.94 57.93, 222.02 55.59" stroke="#82c91e" stroke-width="0.5" fill="none"></path><path d="M-0.94 -0.88 C75.46 -0.97, 155.59 -0.18, 223.65 -1.33 M-0.38 -0.19 C55.12 -1.61, 109.67 -0.6, 222.82 0.07 M220.51 0.98 C223.16 10.81, 220.81 24.37, 220.76 58.41 M222.73 0.69 C221.91 12.47, 221.98 26.68, 222.11 59.59 M223.13 58.66 C169.61 56.59, 117.01 59.18, 0.05 59.81 M221.37 59.29 C158.8 60.13, 94.92 59.77, -0.19 59.17 M-1.64 58.28 C-1.3 45.01, -1.78 29.19, -0.72 -1.62 M0.3 58.88 C-0.18 36.48, 1.06 13.38, 0.02 0.72" stroke="#000000" stroke-width="1" fill="none"></path></g><g transform="translate(44 386.5) rotate(0 71.5 13)"><text x="0" y="18" font-family="Virgil, Segoe UI Emoji" font-size="20px" fill="#000000" text-anchor="start" style="white-space: pre;" direction="ltr">skeleton-app X</text></g><g transform="translate(57 414.5) rotate(0 33.5 12)"><text x="0" y="17" font-family="Helvetica, Segoe UI Emoji" font-size="20px" fill="#000000" text-anchor="start" style="white-space: pre;" direction="ltr">git repo</text></g><g stroke-linecap="round" transform="translate(30 475) rotate(0 121.5 29.5)"><path d="M0 0 C0 0, 0 0, 0 0 M0 0 C0 0, 0 0, 0 0 M0.44 7.14 C2.32 4.52, 3.17 1.94, 5.77 0.97 M-0.58 6.75 C2.06 4.28, 3.27 1.82, 4.96 0.31 M0.82 12.15 C2.75 8.73, 5.87 4.3, 11.59 -0.15 M0.61 12.54 C3.78 7.69, 5.54 4.77, 9.93 0.56 M1.51 18.65 C2.59 14.6, 7.22 8.6, 13.82 -1 M-0.79 18.07 C5.74 12.63, 11.19 6.9, 15.52 -0.49 M-0.91 22.78 C7.97 17.02, 13.14 10.89, 19.63 0.7 M0.01 25.07 C8.98 15.55, 17.33 4.74, 21.49 -0.36 M1.02 29.13 C11.43 18.09, 19.13 6.97, 24.3 0.54 M-0.61 30.31 C7.99 20.98, 15.99 11.68, 26 -0.24 M-1.46 36.33 C9 22.13, 22.92 11.19, 32.64 0.29 M-0.17 36.28 C11.98 23.31, 22.12 10.53, 32.71 0.18 M1.03 41.2 C10.56 26.71, 23.91 16.21, 38.06 -0.16 M0.94 41.68 C11.63 29.28, 23.59 15.77, 36.22 0.98 M-1.9 50.91 C12.96 34.57, 22.66 20, 43.95 1 M0.49 49.67 C15.3 30.15, 32.76 10.45, 42.33 0.03 M0.39 55.55 C16.29 38.92, 31.63 19.7, 46.59 -0.58 M-0.1 54.75 C17.55 33.19, 36.11 13.25, 47.65 1.07 M-0.99 59.29 C19.59 37.07, 41.29 12.26, 52.46 0.45 M0.59 60.01 C15.4 42.4, 31.32 24.67, 53.86 -0.22 M5.64 61.23 C23.58 36.62, 43.65 16.4, 57.19 -1 M6.81 60.21 C22.04 40.48, 37.94 21.85, 57.34 -0.16 M11.51 60.87 C28.01 41.07, 46.31 21.67, 62.89 -0.55 M11.5 59.42 C25.78 43.92, 40.12 27.55, 63.41 -1.03 M17.94 58.83 C30.7 42.91, 43.37 29.45, 69 -0.52 M17.59 59.96 C35.43 36.35, 55.8 14.63, 67.95 1.01 M22.62 62.1 C38.59 37.05, 58.7 19, 73.75 -2.02 M21.14 59.81 C38.82 41.63, 54.32 23.04, 73.67 -0.01 M28.97 59.85 C44.09 41.26, 58.19 22.05, 80.94 -1.08 M27.47 60.58 C45.52 39.38, 62.79 20.77, 79.73 0.19 M33.03 59.33 C45.72 48.39, 56.3 33.7, 85.38 -0.78 M32.89 59.67 C53.25 37.59, 72.1 14.15, 85.94 0.19 M36.82 57.73 C50.39 43.65, 63.1 31.72, 91.74 0.62 M38.87 60.26 C49.51 45.41, 61.76 32.3, 90.5 0.93 M43.23 58.08 C58.77 39.12, 76.65 22.04, 95.93 1.55 M43.72 59.42 C57.82 43.88, 71.69 27.54, 96.11 -0.22 M49.38 61.09 C63.92 42.6, 79.72 25.2, 99.97 1.03 M48.8 60.12 C68.67 37.02, 89.67 13.75, 99.71 0.64 M53.52 61.06 C69.19 42.23, 86.38 19.99, 105.37 -1.49 M54.18 59.35 C70.51 41.34, 86.59 22, 106.65 -0.09 M60.37 57.73 C74.83 43.7, 84.67 26.57, 112 1.79 M58.86 60.15 C70.99 43.88, 84.09 29.91, 110.38 0.67 M64.02 60.16 C80.35 41.76, 98.04 21.04, 114.81 -0.4 M64.42 59.69 C79.8 43.4, 93.57 26.88, 115.98 -0.62 M69.31 58.63 C88.94 40.16, 102.89 20.1, 122 1.74 M69.25 59.29 C88.03 39.61, 105.64 19.51, 121.13 0.26 M74.67 60.48 C88.56 41.77, 104.31 24.52, 125.16 -0.76 M74.2 60.55 C89.83 43.63, 105.12 24.5, 127.08 -0.38 M81.54 57.99 C93.13 46.24, 103.52 31.38, 131.98 0.91 M80.77 59.35 C95.26 44, 108.76 28.67, 132.18 0.58 M85.21 60.28 C100.66 40.99, 116.89 23.52, 137.15 1.3 M84.84 59.97 C102.25 41.27, 116.77 25.04, 137.56 1.24 M92.21 61.16 C105.93 42.73, 118.35 29.18, 143.72 0.5 M90.8 59.07 C107.35 40.61, 123.89 21.08, 143.34 0.67 M95.19 59.02 C108.07 46.55, 118.97 33.75, 149.99 0.09 M97.28 59.87 C108.31 48.46, 118.33 34.96, 148.28 1.01 M102.28 60.7 C113.29 43.61, 129.75 27.74, 154.86 -1.08 M101.32 60.09 C118.44 41.36, 133.5 22.21, 154 -0.49 M107.97 61.36 C128.9 37.77, 146.23 13.68, 160.72 1.09 M106.05 60.1 C123.74 40.34, 141.34 19.38, 158.67 0.6 M113.86 61.1 C123.6 44.91, 136.95 31.64, 162.82 -0.26 M112.25 59.7 C127.5 42.31, 143.19 23.07, 165.16 -0.04 M118.75 61.12 C130.56 45.28, 144.92 27.19, 168.17 0.98 M117.28 60.41 C137.67 36.99, 158.17 13.7, 168.78 0.58 M120.87 59.79 C139.36 40.04, 159.17 15.81, 176.85 -0.26 M122.07 59.84 C138.64 42.36, 152.39 25.75, 175.42 -1.19 M126.52 61.33 C143.86 42.03, 157.57 27.29, 180.98 -0.36 M128.66 60.44 C141.41 43.45, 156.27 27.95, 179.25 0.44 M133.03 59.63 C152.37 36.8, 172.29 17.58, 186 0.88 M133.88 59.62 C149.55 40.54, 166.49 21.3, 184.95 0.73 M138.07 58.19 C158.83 37.48, 179.93 13.78, 189.62 0.11 M139.52 59.76 C150.34 47.04, 162.34 32.11, 191.32 0.55 M142.57 61.94 C162.03 41.41, 180.51 21.18, 195.15 -1.7 M144.04 60.31 C160.93 39.91, 178.92 18.65, 195.53 0.32 M148.04 61.11 C169.08 37.04, 190.05 12.75, 202.37 0.63 M148.75 59.83 C169.58 38.88, 189.05 15.46, 200.79 0.21 M155.5 59.19 C168.27 43.62, 184.41 22.86, 208.96 0.35 M153.5 60.07 C166.34 46.11, 177.25 32.92, 206.53 0.08 M158.84 60.68 C174.98 42.93, 192.14 25.65, 213.31 -1.36 M160.85 60.02 C178.54 38.07, 197.08 16.65, 212.1 -0.37 M163.67 59.07 C181.57 41.37, 195 23.47, 215.93 0.54 M165.8 59.98 C179.72 44.05, 194.19 27.86, 216.92 0.4 M172.72 60.65 C182.39 45.22, 197.03 28.26, 222.34 -1.25 M169.91 59.61 C183.06 44.81, 194.82 31.19, 222.24 -0.1 M176.72 60.44 C188.14 43.06, 202.88 26.81, 228.38 1.58 M175.07 60.02 C192.15 40.41, 209.81 20.75, 227.26 -0.4 M179.74 58 C193.58 45.78, 202.63 34.51, 235.17 0.77 M181.62 59.79 C194.33 43.44, 208.86 28.31, 232.84 -0.96 M186.11 61.37 C205.8 39.56, 220.39 19.75, 237.76 0.13 M186.05 59.08 C203.46 40.5, 218.53 21.27, 239.03 0.64 M193.77 58.87 C205.78 47.53, 214.77 34.05, 242.67 0.43 M191.24 59.65 C205.15 44.3, 219.05 28.86, 243.42 0.73 M197.13 59.08 C208.74 49.61, 214.82 38.06, 244.06 5.8 M196.06 58.95 C207.98 47.88, 218.42 33.54, 244.06 6.18 M204.48 58.6 C216 42.26, 232.58 23.87, 244.99 14.49 M201.65 60.17 C212.63 46.5, 224.12 34.74, 243.6 13.35 M208.85 58.01 C219.2 46.56, 229.85 33.9, 242.38 17.61 M207.02 60.33 C221.18 43.74, 234.98 27.04, 243.02 19 M213.38 57.7 C224.56 44.09, 238.18 33.26, 243.13 24.99 M213.31 60.27 C221.65 48.15, 231.42 39.4, 242.6 24.32 M218.18 61.78 C224.43 52.94, 231.12 45.33, 244.86 29.75 M217.44 60.82 C228.2 48.74, 237.15 39.33, 243.43 31.75 M225.76 57.9 C227.78 53, 233.11 47.81, 242.04 36.48 M224.29 58.76 C230.97 51.83, 237.73 41.73, 244.4 37.27 M227.83 61.18 C233.07 52.59, 238.36 46.95, 244.18 41.35 M228.42 58.94 C232.01 55.22, 234.51 53.27, 243.15 42.76 M234.03 59.17 C236 55.02, 240.77 53.76, 244.31 48.75 M233.65 60.87 C236.11 56.57, 239.29 54.3, 243.62 48.78 M239.16 59.33 C239.89 58.9, 241.8 58.22, 243.28 55.19 M239.56 59.9 C241.14 58.47, 242.43 56.36, 243.5 55.05" stroke="#fd7e14" stroke-width="0.5" fill="none"></path><path d="M1.62 -0.34 C94.77 0.71, 190.89 0.23, 244.07 0.65 M0.22 -0.21 C52.36 1.35, 105.44 0.77, 243.36 0.07 M244.37 -0.55 C241.38 21.91, 242.67 43.84, 243.61 60.11 M242.88 -0.35 C243.05 16.89, 242.75 35.08, 243.08 58.71 M243.27 59.99 C159.25 58.58, 78.67 58.72, -0.65 59.26 M242.89 59.09 C160.38 59.09, 75.92 59.22, 0.54 58.48 M-1.88 60.31 C-1.86 40.77, 0.13 24.24, 1.44 0.66 M0.14 59.85 C0.69 41.1, -0.47 24.15, -0.45 -0.56" stroke="#000000" stroke-width="1" fill="none"></path></g><g transform="translate(44 476.5) rotate(0 110 13)"><text x="0" y="18" font-family="Virgil, Segoe UI Emoji" font-size="20px" fill="#000000" text-anchor="start" style="white-space: pre;" direction="ltr">sommerstudent-daemon</text></g><g transform="translate(57 504.5) rotate(0 33.5 12)"><text x="0" y="17" font-family="Helvetica, Segoe UI Emoji" font-size="20px" fill="#000000" text-anchor="start" style="white-space: pre;" direction="ltr">git repo</text></g><g transform="translate(747 402.5) rotate(0 71.5 13)"><text x="0" y="18" font-family="Virgil, Segoe UI Emoji" font-size="20px" fill="#000000" text-anchor="start" style="white-space: pre;" direction="ltr">skeleton-app X</text></g><g stroke-linecap="round" transform="translate(710 362) rotate(0 107.5 56)"><path d="M2.09 44.22 C2.09 44.22, 2.09 44.22, 2.09 44.22 M2.09 44.22 C2.09 44.22, 2.09 44.22, 2.09 44.22 M1.68 49.54 C8.98 41.99, 14.26 34.6, 25.92 25.74 M2.35 50.35 C10.78 39.82, 18.81 30.42, 24.75 23.4 M3.01 55.46 C10.55 47.66, 15.84 40.07, 33.22 22.47 M2.49 55.54 C7.44 48.37, 15.04 42.27, 32.26 20.83 M2.7 63.25 C19.27 43.12, 35.42 25.92, 41.25 16.87 M1.94 63.19 C12.84 49.86, 23.23 38.52, 42.24 17.59 M1.75 68.01 C16.42 51.84, 32.66 33, 50.98 11.36 M3.16 66.88 C15.56 54.41, 28.12 38.67, 50.22 12.81 M4.67 71.95 C26.9 47.02, 45.44 22.12, 60.64 7.07 M5.12 70.32 C16.98 58.46, 28.34 44.89, 59.25 9 M8.93 72.73 C24.35 52.88, 44.17 31.64, 66.59 5.97 M7.57 73.93 C24.63 52.69, 42.71 31.16, 65.64 8.47 M9.08 77.35 C34.01 51.01, 53.79 24.35, 69.95 8.68 M9.91 76.83 C29.19 56.93, 45.77 34.38, 72.4 7.29 M11.51 80.98 C33.85 57.62, 53.39 38.33, 75.58 6.95 M12.82 79.98 C32.72 60.21, 50.94 37.39, 76.99 5.92 M16.59 83.12 C39.83 54.76, 64.79 30.42, 85.4 3.42 M15.22 82.43 C42.23 53.07, 69.84 22.14, 83.47 5.23 M16.84 87.74 C41.94 63.63, 63.45 35.42, 91.25 1.35 M19.19 85.69 C36.88 63.9, 56.68 43.3, 90.22 2.37 M20.97 88.61 C50.74 57.72, 78.24 25.23, 93.73 3.95 M20.9 89.25 C46.57 60.6, 72.19 30.35, 95.52 4.27 M24.08 93.44 C49.25 62.8, 75.19 34.11, 102.15 3.23 M23.55 92.9 C49.1 62.72, 74.39 32.27, 100.38 2.74 M27.09 94.55 C57.55 63.9, 84.39 30.02, 105.52 4.4 M27.66 93.55 C47.2 71.6, 66.32 48.71, 106.27 3.02 M32.87 94.69 C61.76 62.37, 90.5 29.6, 111.21 4.27 M32.01 95.31 C58.52 63.91, 86.87 29.96, 112.64 2.34 M36.35 98.67 C56.15 71.12, 78.14 47.42, 115.81 3.08 M36.54 97.27 C61.39 68.28, 86.56 37.56, 116.61 3.99 M37.34 99.04 C63.98 71.46, 91.9 41.39, 121.88 5.13 M40 99.33 C58.23 78.31, 77.01 54.8, 122.49 4.12 M44.64 101.38 C73.67 66.75, 101.21 34.8, 128.1 2.95 M42.83 101.77 C59.02 80.11, 75.93 61.75, 126.75 4.08 M45.47 101.24 C70.13 73.66, 91.27 49.82, 131.42 5.39 M47.51 102.26 C77.49 66.46, 110.77 29.66, 133 4.71 M50.31 105.25 C71.34 79.19, 93.81 57.02, 139.1 2.97 M50.07 105.28 C79.14 72.74, 107.54 39.81, 136.84 3.89 M53.64 104.22 C76.2 76.59, 103.73 50.45, 141.59 5.58 M53.78 105.29 C78.04 77.02, 103.87 49.97, 141.53 4.39 M60.81 104.55 C89.7 71.29, 120.82 35.74, 147.28 5.25 M58.69 106.44 C87.25 74.32, 115.29 44.73, 145.59 6.9 M63.43 106.85 C93.06 75.11, 118.74 42.96, 148.61 8.4 M63.98 107.27 C93.67 72.02, 123.51 37.59, 149.68 8.35 M67.48 107.26 C90.28 83.69, 111.94 59.88, 154.92 8.84 M68.78 108.33 C101.04 70.84, 132.44 34.34, 154.3 9.23 M72.21 109.42 C106.25 70.67, 139.24 31.34, 160.51 9.75 M73.9 108.23 C93.72 84.4, 115.03 59.8, 158.63 9.66 M78.79 109.01 C97.07 86.27, 113.67 68.8, 164.8 9.48 M77.33 110.42 C103.63 80.52, 128.69 53.07, 163.54 11.43 M84.53 109.93 C116.59 71.3, 149.56 32.64, 168.46 11.46 M83.23 109.57 C111.82 76.53, 140.11 42.36, 168.49 12.08 M84.98 112.4 C118.05 74.75, 149.58 40.59, 173.5 14.09 M86.9 111.82 C111.06 85.19, 134.71 58.01, 172.49 12.95 M90.71 113.56 C107.71 90.52, 127.56 71.12, 175.45 12.56 M92.28 111.62 C118.64 82.35, 143.42 53.86, 176.99 15.26 M98.14 111.43 C122.3 82.3, 148.47 53.52, 178.78 17.55 M95.68 111.81 C121.77 83.11, 146.88 53.96, 180.24 16.9 M100.94 114.95 C124.46 89.03, 145.84 61.59, 182.99 18.77 M99.96 115.89 C123.17 88.05, 147.25 61.45, 184.12 18.26 M106.15 113.34 C126.24 89.61, 149.05 66.33, 188.17 21.91 M105.44 115.59 C131.39 83.64, 158.94 52.8, 186.49 21.3 M111.75 114.09 C129.52 97, 144.05 74.06, 190.34 22.72 M110.3 112.96 C135.46 84.87, 160.48 57.53, 191.43 21.81 M117.34 113.24 C144.47 82.24, 172.65 48.2, 193.68 25.41 M116.14 112.95 C142.86 82.87, 169.64 51.63, 194.17 24.04 M121.64 111.77 C149.08 83.09, 172.83 51.71, 196.59 26.26 M122.15 113.91 C147.91 83.92, 171.57 56.02, 198.08 26.5 M127.94 112.49 C152.8 83.17, 178.17 57.29, 201.83 29.23 M127.47 112.69 C148.44 88.78, 169.61 66.65, 201.51 29.72 M132.88 113.16 C148.07 93.82, 164.53 74.66, 204.65 32.38 M132.81 111.94 C158.8 81.41, 183.76 52.16, 204.82 30.88 M138.6 112.36 C153.37 93.16, 169.75 79.42, 205.61 32.99 M139.31 112.19 C158.24 89.46, 177.03 68.6, 205.97 35.07 M144.86 111.38 C165.37 91.21, 186.22 67.12, 208.62 38.6 M145.54 111.89 C164.79 87.66, 184.69 64.58, 209.38 38.64 M151.1 109.8 C168.72 87.79, 189.34 67.51, 208.49 42.74 M152.41 109.25 C171.09 89.61, 187.59 70.4, 210.3 42.98 M158.72 106.2 C171.21 91.21, 183.42 77.02, 213.01 48.02 M160.16 107.02 C171.48 93.82, 181.11 81.28, 211.68 45.86 M168.4 105.96 C181.97 84.6, 197.99 67.27, 213.06 50.22 M166.55 104.59 C178.71 90.95, 189.5 80.01, 215.12 49.73 M172.9 102.4 C184.47 90.33, 191.78 81.37, 216.8 54.48 M174.49 101.26 C187.04 87.14, 199.68 70.77, 215.89 54.04 M181.93 98.42 C193.51 86.6, 201.67 75.61, 213.14 61.9 M183.69 98.08 C189.77 89.83, 195.56 83.09, 213.12 64.06 M198.83 86.4 C203.25 82.55, 208.6 75.49, 210.21 75 M199.92 86.04 C201.12 82.74, 203.95 80.16, 209.4 73.04" stroke="#82c91e" stroke-width="0.5" fill="none"></path><path d="M88.75 1.72 C102.3 -0.38, 120.23 0.36, 134.52 2.07 C148.81 3.77, 162.87 7.22, 174.5 11.95 C186.13 16.68, 197.44 23.61, 204.28 30.47 C211.11 37.34, 214.88 45.51, 215.49 53.12 C216.1 60.73, 213.67 68.81, 207.93 76.13 C202.19 83.45, 191.88 91.53, 181.06 97.06 C170.23 102.59, 157.02 106.73, 142.97 109.33 C128.93 111.93, 111.52 113.33, 96.79 112.65 C82.05 111.97, 67.18 109.06, 54.57 105.23 C41.95 101.41, 29.91 96.13, 21.09 89.7 C12.28 83.27, 4.82 74.27, 1.68 66.66 C-1.46 59.04, -1.13 51.44, 2.27 44.01 C5.66 36.59, 12.99 28.31, 22.05 22.11 C31.12 15.9, 42.61 10.41, 56.66 6.78 C70.72 3.14, 95.41 1.15, 106.38 0.32 C117.35 -0.5, 122.43 0.96, 122.46 1.82 M114.67 -1.39 C129.01 -2.17, 144.2 1.69, 157.32 5.53 C170.45 9.38, 184.44 15.59, 193.41 21.67 C202.39 27.75, 207.77 34.64, 211.16 42.02 C214.54 49.4, 216.32 58.35, 213.75 65.95 C211.17 73.56, 204.05 81.2, 195.7 87.65 C187.35 94.11, 176.18 100.72, 163.63 104.69 C151.08 108.65, 135.54 110.49, 120.39 111.45 C105.24 112.42, 86.86 112.98, 72.75 110.48 C58.63 107.98, 46.2 101.72, 35.72 96.46 C25.25 91.2, 15.7 86.05, 9.89 78.91 C4.07 71.78, 0.97 61.65, 0.83 53.64 C0.69 45.64, 2.79 37.76, 9.04 30.87 C15.29 23.98, 26.85 17.25, 38.33 12.29 C49.82 7.33, 65.41 3.21, 77.94 1.11 C90.48 -0.99, 107.72 -0.11, 113.54 -0.31 C119.37 -0.51, 112.9 -0.88, 112.89 -0.09" stroke="#000000" stroke-width="1" fill="none"></path></g><g transform="translate(1051 406.5) rotate(0 110 13)"><text x="0" y="18" font-family="Virgil, Segoe UI Emoji" font-size="20px" fill="#000000" text-anchor="start" style="white-space: pre;" direction="ltr">sommerstudent-daemon</text></g><g stroke-linecap="round" transform="translate(1025 364) rotate(0 136 56.5)"><path d="M3.19 43.84 C3.19 43.84, 3.19 43.84, 3.19 43.84 M3.19 43.84 C3.19 43.84, 3.19 43.84, 3.19 43.84 M1.74 50.32 C8.62 43.48, 16.4 32.31, 27.1 25.72 M3.2 50.41 C7.61 44.4, 12.89 37.72, 25.46 24.86 M2.37 57.71 C10.47 44.04, 21.61 34.65, 34.65 21.7 M2.47 56.19 C15.35 43.26, 25.22 30.6, 33.21 21.74 M1.57 63.18 C16.89 49.11, 29.89 29.57, 40.22 19.13 M1.27 64.11 C10.72 53.27, 17.46 43.9, 41.73 16.88 M2.89 69.06 C21.41 47.29, 34.74 29.54, 49.33 15.79 M3.58 66.39 C14.16 55.1, 25.54 43.67, 49.06 14.12 M6.45 70.41 C19.28 54.98, 31.48 44.17, 59.73 11.51 M7.49 69.51 C23.97 49.14, 43.23 28.8, 58.39 10.55 M8.91 71.87 C30.03 51.62, 48.15 28.64, 62.92 9.1 M9.98 73.17 C26.87 53.57, 44.83 32.87, 64.29 9.58 M12.92 75.99 C33.29 48.44, 57.46 24.75, 68.13 11.16 M13.22 74.86 C32.26 52.89, 53.03 29.57, 69.56 9.94 M13.98 79.17 C35.98 56.14, 54.64 33.72, 75.89 9.49 M14.2 79.96 C32.41 58.21, 50.12 38.22, 75.59 7.33 M17.2 84.27 C32.51 66.98, 49.5 48.8, 83.53 6 M16.31 82.51 C32.95 66.06, 46.97 47.48, 82.71 7.43 M18.76 85.45 C35.11 69.05, 46.78 51.84, 89.85 4.75 M19.63 86.32 C43.49 59.23, 66.65 31.87, 87.6 6.25 M24.66 87.06 C48.43 59.75, 71.58 31.58, 95.34 6.93 M24.5 87.97 C42 65.9, 57.91 46.73, 94.41 7.13 M28.3 89.06 C48.76 63.87, 71.11 36.12, 100.23 5.87 M27.88 88.45 C46.87 65.47, 66.41 43.86, 99.55 6.13 M30.48 91.85 C47.74 70.16, 65.37 53.74, 107.39 3.03 M32.17 90.16 C59.03 58.59, 86.28 24.87, 105.43 4.03 M35.59 94.62 C59.85 62.2, 86.22 34.62, 110.98 4.54 M34.23 93.49 C55.75 69.8, 75.35 48.42, 111.95 5.18 M40.36 92.57 C67.09 62.49, 94.96 30.31, 118.67 1.34 M38.96 94.16 C61.32 68.89, 83.26 44.79, 117.5 3.79 M42.03 94.66 C68.22 69.19, 89.41 42.8, 121.78 1.35 M42.2 97.22 C66.77 67.02, 91.22 39.56, 123.88 2.25 M46.44 97.58 C80.12 59.76, 109.03 24.9, 126.68 3.56 M45.75 99.19 C71.09 70.12, 95.17 42.07, 128.6 3.46 M48.18 99.61 C66.36 78.36, 84.49 58.03, 134.25 4.64 M50.22 100.07 C80.13 64.96, 112.21 29.79, 133.06 3.61 M54.69 102.46 C81.39 71.71, 105.34 39.64, 138.7 2.34 M54.02 101.41 C77.83 72.8, 102.57 44.22, 138.29 3.76 M58.4 105.15 C91.89 63.37, 123.06 27.5, 144.36 4.62 M56.3 104.38 C74.68 82.76, 92.88 61.78, 144.42 5.16 M61.53 105.17 C85.9 74.01, 114.33 44.33, 149.8 3.52 M60.51 105.09 C93.36 67.54, 126.72 28.96, 147.72 5.31 M66.85 105.83 C85.74 85.05, 104.31 61.52, 152.61 4.24 M66.04 106.13 C100.24 65.37, 134.8 25.9, 154.15 3.24 M69.21 106.89 C92.56 79.71, 116.23 55.19, 158.89 6.1 M70.53 107.43 C104.81 66.15, 138.64 26.74, 159.65 4.63 M74.9 106.7 C100.53 81.02, 122.48 51.4, 163.33 3.85 M74.04 108.5 C96.18 81.17, 120.18 54.47, 165.07 5.33 M79.17 107.01 C103.53 83.26, 126.52 55.81, 170.71 4.56 M79.39 109.55 C100.14 84.4, 120.54 60.52, 168.43 4.42 M83.66 109.45 C111.96 80.71, 135.11 52.38, 174.62 2.49 M84.4 110.03 C114.11 73.4, 142.8 39.68, 176.54 3.29 M89.91 108.32 C121.17 71.54, 155.81 35.72, 181.76 2.02 M88.24 109.7 C117.06 77.57, 145.93 44.54, 181.98 4.74 M91.43 112 C125.12 74.39, 158.4 33.28, 187.16 6.69 M92.23 112.2 C124.09 74.89, 154.83 38.31, 185.29 4.21 M99.82 111.06 C129.35 76.28, 158.09 43.01, 188.46 7.87 M98.88 111.31 C128 76.25, 158.64 42.56, 189.91 6.64 M102.97 114.42 C130.82 79.67, 162.16 43.01, 194 6.62 M102.82 113.37 C120.26 90.58, 139.28 69.88, 193.2 6.52 M104.42 115.43 C137.41 78.87, 170.68 40.26, 199.59 6.84 M105.04 115.47 C131.32 86.58, 156.09 57.89, 197.98 7.23 M112.85 112.24 C132.95 89.94, 151.72 68.03, 205.34 8.38 M111.11 114.07 C131.7 90.02, 153.62 67.45, 204.11 8.32 M118.29 114.75 C145.08 82.13, 174.61 49.83, 209.12 7.9 M116.29 114.11 C134.83 93.64, 152.37 72.67, 206.88 10.58 M120.79 116.66 C154.27 73.04, 191.73 33.53, 210.61 12.28 M120.95 115.24 C149.51 81.92, 177.48 51, 211.8 11.62 M127.27 113.11 C155.52 83.95, 184.59 48.45, 216.84 11.45 M126.24 113.66 C153.28 83.63, 178.84 54.44, 216.97 12.91 M133.66 116.84 C164.6 77.92, 200.81 36.9, 218.96 11.56 M133.1 114.46 C162.41 81.4, 190.97 48.04, 220.63 13.09 M137.64 114.74 C169.97 77.46, 202.81 39.38, 223.69 13.57 M137.72 114.4 C157.57 92.49, 175.73 72.66, 223.48 14.83 M141.49 115.85 C166.52 87.56, 190.85 62.69, 227.43 16.9 M143.28 113.99 C175.14 77.72, 208.19 41.69, 227.57 16.57 M149.48 115.08 C170.99 85.51, 198.24 57.25, 230.41 19.54 M148.13 113.53 C174.04 85.84, 199.09 56.9, 231.26 18.89 M156.72 110.96 C183.54 82.1, 206.11 53.98, 233.48 19.17 M155.43 112.95 C181.25 84.69, 205.16 55.24, 234.83 19.78 M162.66 110.47 C178.14 91.47, 198.01 71.34, 238.21 23.06 M161.46 112.9 C193.25 77.36, 222.5 42.36, 239.4 22.75 M167.05 109.9 C190.34 81.6, 214.53 56.05, 243.07 25.92 M166.47 111.7 C195.2 78.13, 225.01 42.78, 241.89 24.85 M174.92 108.98 C196.29 86.25, 215.98 61.76, 247.47 27.79 M174.35 109.77 C189.82 91, 206.31 72.42, 245.93 26.76 M179.25 109.8 C197.02 87.92, 215.38 68.81, 251.97 27.89 M180.22 108.67 C198.63 87.62, 217.89 65.7, 250.81 28.83 M187.13 108.36 C207 81.73, 229.54 57.62, 254.36 30.55 M185.34 108.83 C199.34 91.94, 212.91 76.8, 254.45 29.17 M191.91 109.01 C206.67 89.75, 218.56 76.81, 257.78 31.01 M192.08 106.24 C215.83 78.3, 242.44 50.26, 258.28 31.67 M199.29 108.04 C221.73 77.5, 247.76 48.19, 261.56 34.87 M196.87 106.15 C212.15 87.96, 229.34 70.09, 258.89 35.63 M205.45 105.3 C223.63 83.84, 242.92 60.66, 261.26 39.41 M203.07 104.95 C224.47 81.82, 247.5 55.19, 262.92 39.24 M210.52 101.11 C227.65 83.6, 243.39 67.32, 265.53 39.22 M211.3 103.19 C231.42 79.77, 251.1 57.2, 264.69 41.45 M216.72 100.36 C226.93 89.41, 240.57 77.65, 266.91 45.62 M218.41 101.95 C229.74 86.83, 242.87 74.18, 267.86 43.53 M226.45 99.63 C241.37 80.86, 254.52 62.7, 270.56 47.23 M226.31 98.09 C237.15 85.57, 248 73.09, 270.92 47.85 M233.11 95.1 C246.98 81.69, 258.23 66.42, 273.1 49.89 M233.66 96.36 C243.37 85.8, 252.06 76.35, 272.91 49.97 M239.21 94.11 C249.66 84.5, 254.25 77.07, 270.81 58.53 M240.8 93.16 C248.74 84.32, 256.43 75.1, 270.33 58.72 M244.52 93.12 C252.43 85, 260.99 76.9, 266.83 66.23 M246.66 92.68 C251.82 85.45, 259.24 77.69, 269.26 67.44" stroke="#fd7e14" stroke-width="0.5" fill="none"></path><path d="M74.9 7.01 C88.69 3.38, 108.51 1.54, 125.42 0.89 C142.33 0.24, 160.32 1.13, 176.34 3.12 C192.37 5.11, 208.49 8.41, 221.57 12.85 C234.66 17.29, 246.46 23.56, 254.85 29.77 C263.25 35.98, 270 43.27, 271.95 50.12 C273.9 56.97, 271.25 63.9, 266.57 70.88 C261.88 77.87, 254.36 86.37, 243.84 92.03 C233.33 97.68, 218.38 101.49, 203.47 104.81 C188.56 108.14, 171.11 110.81, 154.37 112 C137.63 113.19, 119.48 113.52, 103.02 111.97 C86.55 110.42, 69.41 107.11, 55.56 102.71 C41.71 98.31, 28.85 91.87, 19.9 85.58 C10.94 79.28, 4.56 71.92, 1.82 64.92 C-0.92 57.91, -0.26 50.35, 3.45 43.54 C7.15 36.74, 14.41 29.95, 24.03 24.09 C33.65 18.23, 51.7 11.62, 61.16 8.38 C70.62 5.13, 76.19 5.12, 80.78 4.64 C85.38 4.16, 87.68 4.59, 88.73 5.48 M113.35 0.47 C129.11 -1.26, 150.66 0.35, 167.42 2.21 C184.18 4.07, 199.93 7.66, 213.93 11.62 C227.92 15.58, 241.94 20.21, 251.39 25.96 C260.84 31.71, 267.48 39.32, 270.64 46.11 C273.8 52.91, 274.1 59.84, 270.34 66.72 C266.59 73.6, 257.8 81.35, 248.11 87.38 C238.43 93.41, 225.93 98.88, 212.24 102.9 C198.56 106.93, 182.62 110.17, 166 111.53 C149.39 112.89, 129.28 112.35, 112.55 111.06 C95.82 109.77, 79.86 107.41, 65.63 103.78 C51.4 100.16, 37.45 95.08, 27.15 89.31 C16.85 83.55, 8.34 76.02, 3.85 69.18 C-0.64 62.34, -2.09 55.27, 0.2 48.29 C2.5 41.32, 8.63 33.2, 17.62 27.31 C26.62 21.42, 40.67 17.28, 54.17 12.93 C67.67 8.59, 88.62 3.32, 98.62 1.26 C108.62 -0.81, 111.62 0.45, 114.17 0.56 C116.72 0.68, 113.78 0.75, 113.9 1.95" stroke="#000000" stroke-width="1" fill="none"></path></g><g transform="translate(36 623.5) rotate(0 116.5 24)"><text x="0" y="17" font-family="Helvetica, Segoe UI Emoji" font-size="20px" fill="#000000" text-anchor="start" style="white-space: pre;" direction="ltr">1. HTTP POST Request til</text><text x="0" y="41" font-family="Helvetica, Segoe UI Emoji" font-size="20px" fill="#000000" text-anchor="start" style="white-space: pre;" direction="ltr">    &lt;x&gt;.dev.intern.nav.no</text></g><g stroke-linecap="round"><g transform="translate(275.9932102451787 627.2886496973362) rotate(0 224.65824951993852 -87.95530308351235)"><path d="M1.14 -0.04 C42.54 -15.73, 174.26 -66.23, 248.91 -95.25 C323.56 -124.27, 415.91 -160.77, 449.04 -174.14 M0.28 -1.1 C41.56 -17.04, 173.68 -67.82, 248.44 -96.95 C323.2 -126.08, 415.59 -162.95, 448.81 -175.88" stroke="#000000" stroke-width="1" fill="none"></path></g><g transform="translate(275.9932102451787 627.2886496973362) rotate(0 224.65824951993852 -87.95530308351235)"><path d="M426.28 -154.49 C435.54 -161.3, 443.84 -170.32, 448.51 -174.77 M427.16 -156.5 C431.87 -160.88, 437.34 -164.53, 448.98 -175.65" stroke="#000000" stroke-width="1" fill="none"></path></g><g transform="translate(275.9932102451787 627.2886496973362) rotate(0 224.65824951993852 -87.95530308351235)"><path d="M418.77 -173.59 C430.43 -173.93, 441.3 -176.42, 448.51 -174.77 M419.65 -175.59 C426.11 -175.66, 433.27 -174.99, 448.98 -175.65" stroke="#000000" stroke-width="1" fill="none"></path></g></g><g stroke-linecap="round"><g transform="translate(734 450) rotate(0 31.876641794138266 113.74133824207357)"><path d="M-0.42 0.56 C8.79 6.3, 43.44 -2.99, 54.2 34.87 C64.97 72.72, 62.43 195.47, 64.18 227.68 M1.55 -0.2 C10.72 5.62, 43.06 -1.84, 53.36 35.81 C63.67 73.46, 61.41 193.97, 63.37 225.7" stroke="#000000" stroke-width="1" fill="none"></path></g><g transform="translate(734 450) rotate(0 31.876641794138266 113.74133824207357)"><path d="M53.4 198.08 C52.99 203.57, 58.32 210.31, 65.27 225.97 M53.1 197.26 C55.5 205.07, 57.2 211.62, 64.25 225.17" stroke="#000000" stroke-width="1" fill="none"></path></g><g transform="translate(734 450) rotate(0 31.876641794138266 113.74133824207357)"><path d="M73.92 197.62 C69.17 203.13, 70.15 209.97, 65.27 225.97 M73.61 196.79 C70.94 204.84, 67.57 211.5, 64.25 225.17" stroke="#000000" stroke-width="1" fill="none"></path></g></g><g stroke-linecap="round" transform="translate(640 685) rotate(0 288.5 50)"><path d="M0 0 C0 0, 0 0, 0 0 M0 0 C0 0, 0 0, 0 0 M-0.43 6.77 C1.18 4.53, 3.35 2.11, 5.09 0.54 M-0.35 6.1 C1.39 4.84, 2.28 3.09, 5.33 0.23 M-0.96 13.39 C4.39 7.16, 5.67 4.27, 9.7 1.19 M0.85 12.07 C3.02 9.52, 5.57 5.15, 10.88 -0.71 M-0.91 17.06 C7.33 13.22, 10.29 3.98, 17.4 -0.68 M0.6 18.24 C6.82 12.03, 11.8 3.61, 15.27 -0.44 M1.58 24.59 C8.95 16.44, 14.18 8.65, 21.63 0.44 M1.15 23.84 C6.26 16.02, 12.66 9.06, 21.64 0.59 M-0.55 30.73 C7.87 20.34, 16.72 12.44, 27.54 -0.72 M-0.04 29.77 C10.89 18.03, 21.46 6.46, 25.8 1.04 M0.36 35.84 C9.57 26.75, 15.27 15.43, 32.48 0.61 M-0.63 37.76 C10.38 24.31, 23.14 10.23, 31.73 0.3 M-1.73 40.67 C14.95 27.75, 25.47 10.3, 38.39 1.69 M0.8 41.57 C12.59 28.24, 24.12 14.26, 36.48 1.21 M1.41 48.7 C15.02 33.27, 29.7 14.93, 42.88 -1.59 M-1.08 48.19 C8.26 39.16, 17.36 28.69, 43.47 -0.98 M-1.34 53.03 C16.22 34.84, 30.77 20.05, 47.89 -0.63 M0.25 55.51 C14.22 38.8, 28.47 22.05, 47.28 0.36 M0.25 62.5 C14.15 47.34, 24.12 31.22, 54.82 0.05 M-0.02 61.3 C11.54 47.46, 23.66 32.31, 53 0.1 M0.21 68.54 C22.21 38.59, 45.22 15.6, 57.15 0.92 M0.67 66.83 C15.42 48.55, 30.33 32.35, 59.04 0.4 M0.25 71.58 C23.58 46.64, 46.62 19.65, 63.54 1.55 M0.28 72.12 C22.22 47.47, 44.83 22.19, 64.4 -0.5 M1.7 79.44 C22.33 56.07, 40.2 31.02, 70.49 -1.23 M0.31 79.09 C19.19 56.79, 38.06 36.56, 69.52 0.82 M-0.03 86.15 C26.59 52.8, 56.7 21.04, 73.43 0.76 M0.44 85.27 C19.27 63.34, 38.67 40.51, 73.61 -0.24 M1.14 90.1 C18.99 68.04, 37.75 46.23, 79.38 1.18 M-0.64 90.72 C30.93 55.86, 61.97 20.6, 79.4 0.72 M0.48 96.93 C28.04 67.89, 55.46 33.85, 86.06 1.32 M-0.63 97.72 C32.9 59.51, 66.41 19.73, 84.52 0 M0.3 99.63 C30.77 68.85, 56.13 34.97, 90.51 0.2 M2.52 101.71 C36.37 60.94, 69.82 22.33, 90.25 0.78 M7.25 99.94 C41.18 61.85, 74.32 24.1, 96.21 0.69 M8.04 101.47 C38.97 64.5, 69.23 27.92, 94.89 -0.03 M10.14 100.47 C39.72 69.2, 66.86 37.81, 101.74 -0.31 M12.37 102.12 C35.18 74.79, 59.74 48.44, 100.55 -0.73 M15.79 102.06 C54.7 62.02, 88.78 23.02, 107.85 -1.85 M17.2 101.21 C45.76 69.8, 73.73 37.84, 106.43 -0.02 M21.63 101.93 C51.74 67.61, 78.74 33.6, 110.13 -0.67 M22.24 101.71 C46.24 73.41, 72.69 44.6, 111.68 0.06 M30.14 100.5 C56.69 67.96, 87.01 34.45, 117.46 -0.45 M27.85 101.7 C62.47 62.76, 96.04 23.92, 116.05 -0.29 M33.52 103.61 C61.87 71.22, 88.62 40.49, 119.92 -1.38 M33.93 101.27 C66.43 62.77, 99.85 25.18, 121.95 0.63 M40.78 100.52 C58.02 79.51, 76.83 57.85, 128.7 2.26 M39.16 101.52 C60.17 75.55, 81.64 51.77, 126.57 1.16 M42.4 102.15 C73.15 69.74, 103.21 36.27, 134.54 0.87 M43.83 101.45 C70.35 70, 98.45 37.28, 132.55 0.02 M49.4 103.15 C70.08 80.88, 84.54 60.67, 136.42 -0.24 M49.18 100.88 C78.04 66.71, 107.34 32.32, 136.74 1.19 M54.03 100.03 C82.61 67.51, 111.5 34.43, 144.6 1.19 M54.2 101.46 C87.52 66.27, 118.3 28.29, 143.58 0.89 M60.85 101.28 C84.7 72.45, 108.76 45.35, 149.34 -1.43 M60.92 101.53 C83.62 75.68, 105.57 49.13, 147.86 0.5 M63.38 101.51 C98.84 65.71, 128.04 26.13, 151.92 -1.49 M65.24 101.13 C83.4 79.59, 102.27 58.48, 154.06 -0.51 M71.2 99.57 C107.56 60.06, 143.12 22.79, 157.35 -0.97 M70.25 100.86 C105.2 63.12, 139.27 23.23, 159.15 0.38 M74.59 100.68 C108.33 64.6, 137.65 30.72, 165.46 -0.42 M75.04 100.88 C97.96 76.49, 117.15 52.47, 163.91 -0.35 M79.68 102.53 C108.4 67.73, 136.91 37.25, 167.54 -0.72 M81.97 101.82 C99.09 80.11, 118.55 58.02, 169.73 0.71 M85.01 101.45 C115.24 67.08, 144.81 34.97, 173.43 -1.05 M85.58 101.73 C109.2 76.77, 130.88 50.23, 175.95 -1.19 M92.72 102.46 C125.61 64.79, 157.99 24.52, 180.19 -0.7 M91.78 100.98 C112.07 77.46, 133.25 54.66, 180.63 -0.02 M97.14 101.51 C129.33 60.95, 165.62 19.31, 187.18 -1.01 M96.77 101.27 C126.11 67.75, 156.34 33.84, 185.91 -0.01 M103.94 99.48 C128.5 71.19, 157.57 38.68, 188.74 0.85 M102.29 100.49 C126.49 74.12, 149.54 46.23, 190.78 -0.73 M106.71 100.4 C140.54 64.97, 171 28.64, 197.27 -2.12 M108.43 101.71 C127.61 77.89, 149.19 54.2, 196.43 -0.18 M114.14 101.52 C135.34 77.68, 156.16 55.1, 199.86 -0.48 M113 102.09 C142.77 67.51, 172.63 33.13, 201.03 0.22 M118.61 103.46 C148.19 66.86, 176.92 33.25, 205.44 1.62 M118.27 101.83 C148.88 65.7, 180.77 30.12, 207.06 0.51 M123.31 100.32 C148.23 71.7, 175.28 44.76, 213.37 0.71 M124.33 101.11 C155.76 62.95, 189.57 24.79, 212.12 -0.88 M130.92 101.83 C153.39 72.47, 181.54 42.66, 216.61 0 M129.9 101.03 C161.65 65.82, 192.31 30.94, 218.24 -0.14 M133.99 100.19 C164.95 66.87, 195.95 27.75, 222.3 -0.37 M134.96 101.26 C162.25 69.98, 189.03 37.75, 222.69 0.81 M138.91 100.47 C167.03 71.24, 194.75 38.76, 226.91 -1.34 M138.86 101.28 C170.17 67.57, 201.32 32.91, 227.32 -0.72 M145.83 102.99 C176.36 64.86, 208.74 31.98, 232.86 1.3 M144.42 101.55 C162.35 79.13, 181.31 57.16, 233.32 0.75 M151.06 102.16 C177.52 65.2, 208.1 33.45, 238.98 -0.24 M150.58 101.16 C178.14 69.48, 205.04 39.06, 237.93 0.53 M155.75 100.66 C185.39 65.2, 215.76 29.11, 244.44 0.58 M155.2 102.84 C183.1 69.62, 209.53 36.79, 244.47 -1.03 M161 99.49 C184.05 73.3, 204.93 47.82, 248.62 -0.95 M160.4 101.84 C185.13 70.56, 211.52 41.13, 248.52 0.67 M164.48 100.18 C187.55 78.1, 207 57, 253.63 -1.91 M165.35 100.87 C185.23 79.79, 204.49 58.04, 254.51 0.11 M171.56 102.86 C190.24 78.96, 207.97 56.78, 260.87 -1.66 M171.57 101.07 C205.26 62.78, 240.85 21.56, 258.54 0.65 M175.95 100.38 C199.45 74.09, 222.1 48.06, 266.2 0.31 M175.8 100.92 C200.64 76.46, 222.44 50.44, 265.71 -0.6 M182.78 100.47 C203.97 76.82, 224.76 55.27, 268.57 -1.5 M181.24 101.21 C212.9 64.95, 244.7 28.86, 270.95 0.24 M185.28 99.85 C212.12 73.07, 240.89 43.78, 277.12 -0.49 M186.42 101.92 C220.27 65.4, 250.66 28.35, 276.27 0.67 M191.86 102.35 C217.01 76.48, 239.18 50.25, 279.79 0.2 M192.47 101.21 C211.26 78.91, 231.35 57.3, 281.64 0.82 M198.77 101.04 C232.02 61.44, 269.52 22.7, 286.52 1.77 M197.97 102.34 C231.45 60.57, 266.19 21.5, 286.26 0.33 M205.2 100.35 C230.75 72.02, 254.62 42, 289.78 -0.06 M204.23 100.61 C224.32 76.68, 245.68 52.12, 291.4 -0.65 M209.92 102.19 C243.65 61.24, 279.62 22.37, 295.75 -1 M208.12 102.29 C241.65 63.35, 275.35 23.73, 297.69 -0.6 M214.39 100.1 C236.55 72.96, 260.87 47.31, 300.94 2.02 M213.38 101.56 C246.13 64.21, 277.65 27.92, 301.94 0.38 M219.39 101.35 C249.06 66.35, 275.26 34.73, 307.32 0.91 M219.43 101.44 C246.72 69.73, 276.21 34.7, 308.46 -0.53 M224.18 101.07 C254.9 66.37, 288.41 29.1, 310.92 -1.43 M224.7 100.77 C258.37 64.32, 289.54 25.43, 311.87 0.08 M231.07 100.39 C249.96 81.92, 265.33 57.96, 316.95 -0.98 M229.41 101.08 C262.65 63.34, 296.12 26.43, 318.39 -1.25 M236.56 100.54 C261.14 73.92, 283.75 46.44, 324.49 1.51 M234.89 101.57 C263.52 67.09, 292.2 35.38, 322.69 0.17 M240 100.99 C261.62 75.59, 287.18 47.3, 329.54 -1.34 M240.42 102.06 C260.3 78.29, 281.27 55.34, 329.17 0.03 M246 102.34 C262.72 79.67, 278.81 60.99, 333.67 -1.41 M245.86 102.64 C274.88 65.53, 307.77 30.15, 334.82 0.02 M252.42 100.65 C275.61 74.6, 300.2 45.29, 339.16 -1 M251.77 100.86 C283.94 64.09, 315.53 26.85, 340.45 -1.3 M254.16 101.87 C276.8 80.38, 295.19 60.65, 345.62 1.36 M255.44 100.97 C274.99 81.41, 293.88 59.27, 343.58 0.54 M261.76 100.67 C284.82 76.41, 307.79 47.5, 348.45 1.74 M261.65 101.54 C279.42 81.57, 297.03 60.9, 349.08 -0.51 M265.9 102.59 C288.77 76.24, 311.52 49.31, 354.72 1.19 M267.37 102.43 C297.38 68.86, 325.17 33.68, 355.22 0.26 M272.63 102.16 C306 61.34, 340.55 22.41, 359.15 0.15 M273.16 101.74 C301.67 67.62, 330.98 34, 359.81 -0.54 M275.93 101.03 C314.32 61.08, 346.59 21.48, 366.52 1.26 M277.95 102.72 C294.75 79.74, 314.94 57.18, 364.86 -0.69 M280.85 102.07 C304.43 77.04, 321.47 54.11, 372.28 -0.43 M282.34 100.71 C311.27 71.34, 336.96 40.04, 371.34 0.55 M288.15 103.52 C319.13 62.85, 355.78 23.32, 377.75 0.57 M287.41 102.12 C305.98 81.61, 323.78 60.69, 376.55 -0.61 M293.41 101.12 C323.22 67.25, 356.63 28.4, 382.66 -1.6 M294.08 101.3 C314.24 78.6, 332.41 55.83, 380.9 0.5 M299.65 102.22 C318.39 78.87, 339.71 50.73, 388.35 -2.09 M297.86 101.53 C327.66 69.61, 354.82 36.43, 387.23 -0.17 M304.47 99.89 C333.35 67.32, 361.25 34.75, 390.32 0.85 M304.21 101.93 C334.62 65.46, 365.78 31.24, 391.64 -0.33 M308.69 103.08 C336.56 71.42, 364.01 36.99, 397.43 -0.08 M309.33 102.42 C328.28 78.85, 347.94 56.28, 396.77 -0.49 M315.41 102.73 C340.26 73.38, 362.93 41.71, 404.47 0.95 M315.47 100.63 C344.15 68.84, 371.92 36.81, 402.64 1.02 M318.73 101.89 C354.52 60.35, 387.63 22.81, 407.3 1.01 M319.76 100.87 C340.72 75.9, 362.75 51.42, 407.93 -1.06 M326.79 101.83 C359.29 65.31, 392.35 28.49, 411.5 -1.46 M325.5 101.02 C351.66 70.43, 376.93 40.27, 412.85 0.08 M330.43 100.22 C349.14 80.56, 365.8 61.12, 419.45 -0.56 M330.99 101.54 C363.71 63.31, 395.61 24.67, 418.38 0.2 M334.33 101.18 C362.21 71.63, 390.65 38.35, 422.99 -0.74 M336.83 100.32 C358.95 75.29, 379.74 52.06, 423.14 0.99 M341.62 101.47 C369.71 68.08, 403.07 33.24, 430.55 1.25 M340.75 101.7 C365.81 74.97, 387.51 47.95, 428.68 -1.02 M344.98 100.58 C365.87 81.88, 384.34 58.09, 435.73 -1.43 M346.92 101.33 C369.71 75.49, 390.19 48.48, 434.29 0.48 M351.31 102.87 C374.88 71.88, 401.08 44.45, 440.48 0.32 M350.72 101.19 C369.89 79.3, 389.14 57.49, 440.32 0.55 M356.19 100.42 C392 60.29, 427.88 19.6, 443.67 1.75 M357.46 101.21 C391.75 61.95, 425.89 21.55, 444.99 -0.12 M363.73 103.43 C382.09 78.93, 403.44 53.64, 452.28 -1.67 M362.44 102.48 C396.5 61.03, 431.43 21.17, 451.69 -0.22 M366.57 102.6 C400.99 63.65, 432.39 28.13, 453.96 -0.11 M367.03 102.45 C393.24 73.2, 416.28 45.37, 455.82 -0.9 M372.27 99.98 C394.63 76.52, 415.93 53.23, 460.2 0.77 M373.38 100.6 C394.52 78.49, 415.06 54.95, 462.08 -0.85 M375.97 103.13 C394.46 82.17, 412.94 59.72, 466.93 1.89 M377.15 101.39 C404.1 71.42, 429.25 42.8, 467.29 0.66 M383.51 103.19 C407.57 73.46, 432.22 46.44, 473.01 1.69 M382.91 101.19 C402.51 80.24, 421.06 58.19, 471.04 -0.55 M388.06 101.07 C423.73 59.96, 454.7 22.73, 476.11 -1.55 M388.88 101.22 C421.75 63.89, 454.05 25.84, 477.79 -0.35 M393.23 101.51 C426.01 62.86, 462.53 25.06, 480.64 0.72 M394.31 100.48 C417.54 73.16, 442.44 44.31, 482.98 0.85 M397.7 103.27 C435.41 59.23, 470.76 20.41, 488.21 -1.89 M398.21 102.71 C418.33 79.57, 438.33 55.7, 487.64 -0.22 M406.38 101.21 C431.02 69.61, 459.33 38.49, 494.24 -0.47 M404.76 101.29 C426 78.99, 445.84 55.1, 493.26 -0.68 M410.96 100.43 C436.95 72.77, 461.36 44.46, 499.12 -0.8 M410.03 102.22 C435.2 70.78, 463.18 40.59, 499.05 -0.66 M417.11 102.38 C440.54 70.45, 465.31 44.17, 504.8 -1.14 M415.36 101.04 C444.75 67.22, 475.92 32.58, 502.8 -0.28 M421.07 103.03 C447.24 70.98, 477.05 34.72, 509.93 -2.14 M420.13 101.74 C441.28 79.12, 461.84 54.63, 508.14 -0.78 M424.77 102.93 C444.89 77.28, 466.28 56, 514.49 -0.72 M425.1 101.73 C455.17 69.28, 483.3 34.31, 513.42 0.47 M432.46 101.39 C459.57 66.98, 488.55 33.49, 518.9 0.07 M431.2 100.8 C464.71 61.11, 499.01 22.51, 518.94 -1.11 M437.86 102.56 C467.52 66.78, 500.79 29.27, 524.68 1.15 M436.88 101.99 C471.03 62.8, 504.43 24.63, 523.85 -0.39 M440.75 101.61 C474.7 64.77, 504.89 28.53, 529.51 1.59 M440.87 102.58 C467.26 72.08, 493.56 42.35, 529.38 0.43 M446.11 102.8 C480.74 61.24, 513.42 22.39, 535.93 0.66 M447.52 101 C478.11 67.34, 506.74 33.23, 535.73 0.75 M452.74 101.63 C475.39 79.17, 492.62 53.74, 542.4 0.01 M451.62 101.8 C473.82 73.4, 497.76 47.98, 541.31 0.51 M456.4 102.98 C483.97 70.77, 507.43 42.18, 543.98 1.79 M457.72 100.56 C483.02 70.65, 508.36 42.78, 545.61 -0.88 M462.42 103.2 C493.33 65.82, 525.45 29.66, 551.4 -1.27 M462.9 100.82 C492.12 65.46, 524.38 31.74, 550.47 0.39 M468.82 100.26 C499.8 64.43, 532.81 27.06, 555.75 0.34 M468.11 101.05 C486 80.16, 503.67 58.86, 556.93 -0.5 M474.97 99.87 C503.2 65.17, 534.47 34.12, 563.54 -1.03 M473.01 101.56 C506.52 64.36, 536.52 29.18, 562.51 -0.08 M480 102.34 C497.48 81.78, 513.96 59.49, 565.37 -0.05 M478.56 102.2 C505.7 70.3, 533.45 38.55, 568.05 0.32 M482.76 101 C516.43 64.7, 549.77 25.79, 571.02 -0.26 M483.19 101.55 C509.43 75.12, 532.45 47.57, 572.99 -0.45 M489.7 100.51 C511.81 77.88, 532.76 49.83, 578.13 0.04 M488.83 102.09 C512.45 74.08, 537.03 45.94, 578.23 -0.44 M493.34 99.78 C515.41 76.35, 536.67 53.26, 577.35 4.68 M495.58 101.91 C512.14 78.81, 531.14 58.47, 577.48 7.12 M500.9 102.09 C520.18 80.64, 538.74 53.99, 575.38 12.68 M500.58 101.64 C517.18 80.7, 535.75 60.08, 576.49 13.65 M505.45 101.2 C533.34 69.02, 557.72 39.76, 578.4 18.93 M505.23 101.36 C526.61 77.29, 549.87 51.07, 576.65 18.75 M510.46 103.49 C531.13 76.7, 549.29 57.25, 576.6 23.34 M510.07 101.6 C536.4 71.02, 562.48 40.71, 577.71 24.17 M517.02 102.07 C530.5 84.26, 548.58 64.75, 578.56 29.67 M516.07 102.2 C537.82 75.51, 560.79 50.68, 578.38 31.4 M520.39 102.92 C535.67 83.34, 555.47 65.99, 576 35.65 M521.45 101.33 C532.86 88.62, 545.53 75.17, 577.22 36.67 M525.17 103 C540.18 84.5, 556.58 65.4, 578.13 43.92 M526.98 102.34 C538.62 88.7, 549.65 74.79, 577.2 42.63 M529.9 100.4 C543.05 88.39, 555.47 71.2, 575.63 48.29 M530.79 100.78 C541.76 90.54, 552.25 80.9, 577.89 49.52 M538.2 100.42 C548.8 89.17, 556.98 78.98, 576.55 56.26 M537.7 101.27 C547.96 90.43, 558.33 78.5, 577.5 54.36 M543.38 101.77 C554 85.69, 566.89 73.65, 576.75 59.75 M542.03 102.49 C554.29 86.44, 568.13 71.95, 577.54 60.67 M547.6 102.59 C553.15 91.79, 562.98 86, 576.53 69.35 M548.91 102.08 C558.13 88.37, 569.73 75.76, 577.64 67.36 M554.43 102.68 C562.71 92.16, 569.87 82.07, 579.11 73.09 M553.07 101.6 C559.02 93.67, 567.39 85.89, 576.2 74.44 M560.05 101.55 C565.65 91.69, 571.54 85.59, 578.56 78.89 M558.18 101.45 C563.56 94.55, 568.43 89.55, 578.5 80.22 M561.81 100.59 C566.15 99.32, 567.38 94.22, 575.66 84.92 M563.67 101.84 C566.66 97.22, 570.75 91.75, 576.78 86.48 M569.33 101.2 C571.81 97.96, 572.63 96.48, 576.84 90.78 M569.72 101.52 C571.02 99.56, 572.4 96.43, 577.19 91.9 M574 101.91 C574.91 100.43, 575.53 100.11, 577.22 97.86 M574.01 101.59 C575.43 100.26, 576.16 99.31, 577.38 97.95" stroke="#228be6" stroke-width="0.5" fill="none"></path><path d="M0.09 0.29 C226.4 1.27, 453.79 1.1, 576.97 -0.32 M-0.03 0.35 C175.19 2.31, 349.55 1.82, 577.25 -0.22 M577.33 1.07 C578.31 32.91, 577.81 67.82, 577.12 98.86 M576.32 0.9 C576.8 29.19, 578.44 57.47, 578 99.59 M576.64 99.6 C408.59 99.55, 239.11 100.52, -0.61 99.5 M577.03 99.78 C361.44 98.61, 146.83 98.17, 0.37 100.33 M-0.22 100.65 C1.24 69.9, 2.73 39.15, 1.16 -1.8 M-0.23 99 C-0.52 60.03, 0.19 21.18, -0.94 0.98" stroke="#000000" stroke-width="1" fill="none"></path></g><g transform="translate(683 719.5) rotate(0 49 12)"><text x="0" y="17" font-family="Helvetica, Segoe UI Emoji" font-size="20px" fill="#000000" text-anchor="start" style="white-space: pre;" direction="ltr">Kafka topic</text></g><g transform="translate(792 715.5) rotate(0 111.5 12.5)"><text x="0" y="20" font-family="Cascadia, Segoe UI Emoji" font-size="20px" fill="#000000" text-anchor="start" style="white-space: pre;" direction="ltr">sommerstudenter2021</text></g><g stroke-linecap="round"><g transform="translate(797 685) rotate(0 161.69423215889844 -93.2559317199528)"><path d="M1.06 -0.22 C44.88 1.43, 208.96 43.52, 262.65 8.73 C316.34 -26.06, 313.07 -172.85, 323.23 -208.96 M0.16 -1.38 C43.91 0.03, 208.31 41.45, 262.04 6.99 C315.78 -27.47, 312.24 -172.51, 322.58 -208.15" stroke="#000000" stroke-width="1" fill="none"></path></g><g transform="translate(797 685) rotate(0 161.69423215889844 -93.2559317199528)"><path d="M328.63 -177.76 C328.72 -186.49, 324.14 -194, 322.67 -209.99 M328.7 -179.61 C327.71 -185.78, 326.1 -192.19, 321.97 -207.58" stroke="#000000" stroke-width="1" fill="none"></path></g><g transform="translate(797 685) rotate(0 161.69423215889844 -93.2559317199528)"><path d="M308.3 -180.49 C313.97 -188.65, 315 -195.4, 322.67 -209.99 M308.37 -182.34 C312.31 -187.98, 315.61 -193.73, 321.97 -207.58" stroke="#000000" stroke-width="1" fill="none"></path></g></g><g transform="translate(808 596) rotate(0 109 24)"><text x="0" y="17" font-family="Helvetica, Segoe UI Emoji" font-size="20px" fill="#000000" text-anchor="start" style="white-space: pre;" direction="ltr">2. Kafka melding skrevet</text><text x="0" y="41" font-family="Helvetica, Segoe UI Emoji" font-size="20px" fill="#000000" text-anchor="start" style="white-space: pre;" direction="ltr">    til topic</text></g><g transform="translate(1111 590.5) rotate(0 146.5 24)"><text x="0" y="17" font-family="Helvetica, Segoe UI Emoji" font-size="20px" fill="#000000" text-anchor="start" style="white-space: pre;" direction="ltr">3. Kafka melding plukket opp/lest</text><text x="0" y="41" font-family="Helvetica, Segoe UI Emoji" font-size="20px" fill="#000000" text-anchor="start" style="white-space: pre;" direction="ltr">    fra topic</text></g><g stroke-linecap="round" transform="translate(1425 337) rotate(0 98 98.5)"><path d="M-0.19 99.21 C-0.19 99.21, -0.19 99.21, -0.19 99.21 M-0.19 99.21 C-0.19 99.21, -0.19 99.21, -0.19 99.21 M1.03 103.65 C15.67 87.19, 27.03 77.71, 39.87 57.59 M3.15 100.9 C15.41 88.3, 26.72 74.16, 40.99 58.88 M5.4 104.07 C23.96 82.87, 43.83 60.15, 79.63 18.99 M4.96 104.94 C35.3 73.12, 62.48 40.61, 80.74 18.33 M8.26 105.65 C33.46 80.81, 55.16 51.69, 101.28 1.71 M9.25 106.89 C42.71 66.08, 77.47 27.38, 100.28 1.82 M11.01 111.1 C37.88 80.14, 68.17 47.05, 103.91 4.05 M11.83 110.27 C33 85.39, 54.24 61.39, 102.95 3.85 M16.08 112.47 C34.78 91.49, 51.65 68.24, 105.04 8.99 M15.19 112.74 C44.63 78.52, 75.28 43.32, 105.89 7.68 M16.87 115.81 C39.93 88.96, 65.66 58.56, 109.61 8.96 M16.68 115.56 C39.19 91.73, 59.22 66.88, 109.17 10.95 M17.64 119.06 C53.67 79.38, 91.11 38, 112.27 11.66 M20.51 118.29 C51.78 80.11, 85.52 42.34, 112.32 12.32 M21.29 121.84 C56.86 80.43, 94.7 42.72, 113.25 17.88 M21.8 121.46 C50.1 89.63, 78.53 57.31, 114.37 16.08 M27.33 126.18 C50.88 93.24, 78.27 65.19, 118.21 19.4 M24.69 124.01 C53.41 91.42, 79.79 60.67, 117.88 18.88 M28.37 125.6 C53.61 99.69, 76.79 69.76, 120.14 19.63 M29.02 127.22 C60.17 91.25, 92.09 54.57, 121.06 21.15 M30.72 130.7 C59.85 99.89, 87.89 66.25, 123.26 23.46 M31.12 131.18 C55.95 102.04, 79.14 73.58, 123.78 23.81 M34.81 134.34 C67.95 96.07, 97.16 60.36, 126.8 27.13 M34.44 132.68 C53.56 110.4, 74.89 85.37, 125.66 26.92 M37.21 136.24 C64.71 100.13, 95.63 64.57, 127 30.88 M37.74 134.69 C56.57 112.96, 76.47 90.61, 128.13 29.17 M39.08 140.12 C62.38 116.41, 81.23 92.38, 132.91 32.82 M39.7 138.27 C72.3 100.78, 103.99 64.44, 130.49 32.5 M42.76 143.29 C73.06 105.66, 103.18 70.58, 134.25 34.79 M41.76 141.02 C75.72 104.15, 107.05 67.64, 133.96 36.86 M44.24 145.8 C68.39 115.36, 94.63 85.3, 139.33 38.99 M44.72 145.02 C71.18 114.42, 97.9 85.62, 137.77 37.59 M47.14 147.09 C82.58 105.94, 120.38 65.2, 138.95 41.86 M48.94 146.24 C82.84 108.08, 116.2 67.47, 139.2 42.14 M51.17 151.07 C80.08 115.11, 110.56 85.75, 142.16 43.97 M50.95 148.54 C86.18 110.83, 119.46 70.83, 143.63 44.74 M52.7 151.76 C78.87 127.01, 103.63 95.42, 146.26 46.6 M54.29 152.03 C73.51 129.51, 93.23 107.64, 146.67 47.84 M57.28 154.41 C83.74 122.21, 115.1 89.19, 148.62 49.66 M56.12 155.05 C85.21 121.68, 113.25 88.93, 148.13 50.82 M61.57 156.17 C93.1 116.57, 130.49 76.99, 150.54 53.55 M59.39 157.63 C84.19 129.86, 107.86 102.7, 150.13 52.64 M61.82 159.14 C85.6 134.95, 106.71 110.68, 155.15 55.78 M63.49 161.37 C95.15 123.83, 126.15 87.11, 153.18 55.31 M66.47 164.06 C92.14 133.14, 118.76 104.23, 155.97 60.08 M65.06 163.91 C101.16 122.52, 136.62 81.37, 156.87 57.82 M68.6 167.37 C89.28 139.11, 112.8 114.5, 161.4 62.09 M68.61 166.88 C94.29 135.39, 121.4 104.85, 158.65 62.55 M71.92 169.93 C92.32 143.51, 111.21 122.95, 163.29 66.39 M70.68 169.32 C98.63 138.6, 126.61 105.64, 162.48 65.25 M75.23 170.04 C100.61 142.56, 125.86 111.04, 166.83 67.19 M74.54 171.6 C104.32 139.64, 133.44 106.08, 164.96 66.44 M77 177.13 C104.61 143.01, 130.62 111.44, 166.41 70.2 M76.91 175.9 C110.06 135.1, 144.96 95.33, 167.4 70.14 M79.88 176.88 C106.48 146.14, 132.65 114.62, 169.46 74.47 M80.65 178.1 C112.24 140.17, 145.07 103.28, 171.79 72.51 M84.61 179.81 C115.14 147.34, 143.94 111.73, 174.4 77.06 M82.92 181.27 C105.01 152.8, 129.35 125.89, 172.98 75.31 M86.55 182.45 C104 161.49, 123.1 137.5, 174.46 78.9 M85.82 183.57 C114 150.09, 141.14 117.97, 176.69 78.6 M88.22 184.93 C109.19 161.75, 127.71 139.63, 177.56 82.62 M87.19 186.69 C108.78 161.85, 130.57 137.68, 179.52 81.4 M91.8 188.12 C124.58 150.58, 155.64 114.67, 184.21 85.25 M91.23 189.79 C109.97 169.4, 127.24 147.89, 183.13 85.16 M93.08 190.26 C125.08 156.46, 158.05 118.76, 183.37 88.04 M94.7 190.96 C118.09 165.63, 140.63 137.21, 184.19 88.42 M97.32 196.82 C117.23 168.38, 141.67 145.97, 188.29 90.35 M96.91 195.88 C120.11 169.31, 142.89 141.65, 188.51 89.49 M99.05 198.39 C118.02 177.48, 135.92 156.82, 190.46 94.31 M99.74 198.51 C131.02 161.49, 161.95 126.95, 191.07 93.94 M144.71 152.5 C162.62 133.98, 178.12 110.07, 191.44 94.62 M142.49 153.75 C155.17 140.43, 167.81 125.37, 194.11 97.22" stroke="#ced4da" stroke-width="0.5" fill="none"></path><path d="M99.07 -0.84 C132.37 30.82, 161.46 65.61, 194.95 99.08 M99.11 -0.87 C124.35 24.88, 149.58 50.54, 195.67 98.1 M195.33 97.69 C175.15 118.54, 154.71 143.79, 99.61 197.65 M195.55 98.46 C172.82 123.09, 150.07 146.77, 98.03 196.78 M98.34 196.46 C65.84 166.75, 36.18 132.43, -1.78 97.6 M99.2 196.31 C66.14 166.92, 34.95 134, 0.83 99.89 M-1.11 98.21 C25.1 77.49, 48.24 52.95, 100.99 0.47 M-0.27 98.42 C21.72 75.19, 44.54 53.71, 98.55 0.8" stroke="#000000" stroke-width="1" fill="none"></path></g><g stroke-linecap="round" transform="translate(1638 336) rotate(0 98 98.5)"><path d="M-0.19 99.21 C-0.19 99.21, -0.19 99.21, -0.19 99.21 M-0.19 99.21 C-0.19 99.21, -0.19 99.21, -0.19 99.21 M2.44 101.1 C12.87 87.8, 26.69 73.21, 41.02 58.95 M3.15 101.14 C16.21 88.07, 28.21 73.78, 40.23 58.13 M5.46 104.76 C25.08 80.39, 46.78 55.01, 80.9 15.77 M5.54 105.33 C28.39 77.5, 50.34 50.88, 82.08 17.95 M8.16 106.1 C30.37 81.87, 50.52 57.04, 101.21 0.82 M8.92 106.15 C39.55 73.01, 67.98 39.88, 100.17 0.71 M10.92 110.6 C31.13 86.52, 49.42 65.57, 105.53 5.67 M11.21 110.09 C43.7 75.78, 74.85 38.81, 103.23 4.62 M12.65 111.57 C40.98 79.24, 70.07 46.8, 105.38 9.07 M14.31 112.55 C39.58 85.2, 66.41 54.37, 107.01 7.45 M16.76 114.83 C43.77 86.69, 69.3 55.65, 109.16 9.7 M18.19 115.3 C43.6 84.67, 71.09 54.11, 109.48 10.09 M18.97 120.58 C53.79 77.72, 91.88 39.17, 112.52 12.04 M18.95 119.13 C45.94 89.06, 70.78 60.02, 111.3 13.17 M23.16 121.21 C54.84 85.54, 85.75 52.34, 114.18 16.14 M22.83 122.57 C58.32 82.93, 92.19 42.35, 113.89 15.74 M27.35 126.03 C57.84 85.4, 90.34 50.75, 115.76 19.54 M26.36 125.28 C48.53 96.98, 72.11 70.81, 117.43 17.93 M28.12 126.29 C65.39 87.1, 97.81 45.79, 119.76 21.93 M29.02 126.07 C64.35 84.59, 100.29 42.61, 121.01 20.43 M29.25 128.89 C51.31 104.6, 72.75 79.09, 121.36 22.95 M32 131.24 C49.87 110.04, 67.62 88.89, 122.66 25.14 M34.17 133.44 C55.56 107.53, 78.52 78.23, 124.3 28.12 M34.92 132.58 C60.56 101.16, 87.71 71.37, 125.35 27.86 M35.94 136.93 C64.52 103.09, 94.28 71.64, 130.79 29.44 M37.88 134.81 C72.16 96.05, 106.28 57.53, 129.15 29.77 M41.7 138.84 C73 102.81, 108.43 63.59, 129.36 35.28 M40.23 137.48 C75.1 99.49, 109.84 59.77, 131.26 34.07 M41.26 142.75 C76.16 103.6, 105.92 66.32, 134.73 36.25 M43.27 141.43 C69.08 111.67, 97.71 79.94, 134.02 36.68 M43.62 145.48 C75.39 111.19, 102.72 80.48, 137.68 37.82 M44.94 144.73 C75.53 112.21, 102.63 78.28, 137.04 37.7 M46.87 145.73 C69.42 119.69, 93.32 96.53, 141 42.19 M47.98 146.1 C77.71 113.95, 106.65 80.13, 139.25 42.05 M50.69 149.17 C76.63 118.16, 103.43 88.23, 143.22 46.19 M50.57 148.87 C81.92 113.68, 113.21 76.94, 142.9 44.22 M52.96 154.09 C85.98 115.6, 120.34 75.7, 144.63 45.88 M53.1 153.43 C79.66 123.08, 106.54 92.42, 145.72 47.66 M58.2 156.53 C82.85 123.76, 109.14 91.05, 147.09 50.43 M56.89 155.09 C78.9 129.57, 101.52 104.69, 148.92 51.47 M59.56 158.86 C89.51 122.9, 120.46 86.99, 149.87 52 M60.25 157.61 C85.68 126.79, 113.36 95.95, 151.26 53.12 M63.27 158.97 C87.63 129.4, 114.18 98.47, 155.6 54.37 M63.24 161.09 C93.77 123.17, 127.36 87.36, 155.11 55.85 M65.25 163.87 C97.18 130.19, 125.29 94.93, 158.77 58.04 M64.34 164.44 C92.45 132.48, 118.69 101.49, 157.22 58.65 M67.58 166.77 C91.91 141.58, 113.62 115.86, 158.27 61.9 M69.22 167.25 C103.24 125.66, 138.71 84.62, 159.4 62.64 M72.44 167.77 C104.59 128.8, 139.06 90.35, 161.93 64.31 M70.8 169.3 C97.1 138.18, 123.47 107.01, 163.24 65.06 M74.62 170.95 C101.2 138.6, 130.46 110.36, 164.43 67.74 M73.97 172.48 C95.04 148.52, 114.13 126.75, 166.24 66.68 M78.08 174.02 C111.92 134.37, 148.16 92.11, 167.15 68.68 M76.34 175.19 C109.09 137.3, 140.72 99.04, 167.84 70.5 M80.44 177.4 C97.63 153.35, 117 132.7, 169.99 71.43 M78.91 178.31 C101.13 151.27, 124.39 124.36, 171.4 72.43 M82.94 180.9 C119.06 141.05, 156.09 99.06, 173.37 76.81 M82.21 180.65 C102.58 156.64, 123.32 135.17, 174.42 74.71 M86.91 184.8 C118.46 147.35, 148.3 114.48, 178 80.03 M84.99 182.86 C111.86 154.24, 137.08 123.31, 176.49 78.67 M86.36 187.5 C116.97 153.51, 141.64 121.8, 180.77 80.48 M88.95 185.88 C111.22 158.76, 136.97 130.33, 179.36 81.3 M92.47 190.63 C127.79 148.68, 161.6 110.79, 180.69 82.45 M91.44 188.86 C115.96 161.08, 140.41 134.17, 183.04 84.79 M95.5 191.7 C121.1 158.34, 152.41 128.58, 186.69 88.96 M93.6 192.62 C126.18 154.18, 156.37 117.37, 183.87 87.18 M96.68 193.96 C122.63 167.48, 145.05 142.33, 189.53 91.65 M96.36 194.35 C123.54 165.6, 148.41 135.3, 188.51 91.02 M100.04 196.24 C128.54 167.08, 156.21 134.14, 191.66 91.39 M100.5 198.24 C134.02 158.88, 166.9 120.35, 190.1 92.88 M143.01 154.85 C159.5 136.75, 172.41 119.01, 191.13 96.16 M143.44 154.19 C153.68 141.17, 163.37 129.74, 192.25 95.95" stroke="#fa5252" stroke-width="0.5" fill="none"></path><path d="M97.61 -1.54 C130.57 29.75, 157.35 60.85, 197.79 97.74 M98.61 0.91 C129.26 32.65, 159.43 64.24, 196.24 98.25 M194.85 99.61 C157.24 138.33, 121.3 173.69, 100.59 196.64 M195.36 99.51 C172.7 119.95, 150.97 143.99, 99.45 196.77 M99.59 197.18 C61.51 159.02, 24.86 124.13, -0.04 99.02 M99.9 197.62 C76.76 175.05, 56.54 152.47, -0.62 99.15 M-1.87 100.2 C25.25 73.96, 49.04 50.21, 99.11 -0.83 M-0.2 98.24 C28.41 70.55, 56.36 42.18, 99.66 0.73" stroke="#000000" stroke-width="1" fill="none"></path></g><g transform="translate(1469.5 423.5) rotate(0 53.5 12)"><text x="53.5" y="17" font-family="Helvetica, Segoe UI Emoji" font-size="20px" fill="#000000" text-anchor="middle" style="white-space: pre;" direction="ltr">Prometheus</text></g><g transform="translate(1700 422.5) rotate(0 36 12)"><text x="36" y="17" font-family="Helvetica, Segoe UI Emoji" font-size="20px" fill="#000000" text-anchor="middle" style="white-space: pre;" direction="ltr">Grafana</text></g><g stroke-linecap="round"><g transform="translate(1123 470) rotate(0 180.417638767953 16.576126427203405)"><path d="M-1.15 -0.63 C58.66 5, 299.62 28.24, 359.87 33.79 M0.44 1.65 C60.52 6.95, 302.19 26.72, 361.99 32.07" stroke="#000000" stroke-width="1" fill="none"></path></g><g transform="translate(1123 470) rotate(0 180.417638767953 16.576126427203405)"><path d="M331.97 38.02 C345.46 36.06, 354.65 32.82, 363.66 31.31 M332.12 40.39 C341.98 36.84, 351.41 35.01, 361.06 31.33" stroke="#000000" stroke-width="1" fill="none"></path></g><g transform="translate(1123 470) rotate(0 180.417638767953 16.576126427203405)"><path d="M333.71 17.57 C346.52 23.44, 355.05 28.05, 363.66 31.31 M333.86 19.94 C343.2 22.96, 352.07 27.7, 361.06 31.33" stroke="#000000" stroke-width="1" fill="none"></path></g></g><g stroke-linecap="round"><g transform="translate(1495 502) rotate(0 102.0600338508142 -1.0818810276687145)"><path d="M1 -0.12 C34.94 -0.37, 170.43 -1.91, 204.06 -2.04 M0.06 -1.23 C33.9 -1.32, 170.03 -1.33, 203.67 -1.06" stroke="#000000" stroke-width="1" fill="none"></path></g><g transform="translate(1495 502) rotate(0 102.0600338508142 -1.0818810276687145)"><path d="M175.24 10.88 C183.22 5.1, 194.55 0.5, 205.44 -0.76 M174.6 8.79 C180.47 6.08, 186.45 4.71, 203.79 -0.73" stroke="#000000" stroke-width="1" fill="none"></path></g><g transform="translate(1495 502) rotate(0 102.0600338508142 -1.0818810276687145)"><path d="M175.31 -9.65 C183.18 -8.53, 194.48 -6.24, 205.44 -0.76 M174.67 -11.73 C180.59 -10.29, 186.55 -7.49, 203.79 -0.73" stroke="#000000" stroke-width="1" fill="none"></path></g></g><g transform="translate(1481 243.5) rotate(0 220.5 36)"><text x="0" y="17" font-family="Helvetica, Segoe UI Emoji" font-size="20px" fill="#000000" text-anchor="start" style="white-space: pre;" direction="ltr">Melding skal n vre synlig p Grafana,</text><text x="0" y="41" font-family="Helvetica, Segoe UI Emoji" font-size="20px" fill="#000000" text-anchor="start" style="white-space: pre;" direction="ltr">se github.com/navikt/skeleton-app-x/README.md</text><text x="0" y="65" font-family="Helvetica, Segoe UI Emoji" font-size="20px" fill="#000000" text-anchor="start" style="white-space: pre;" direction="ltr">for lenke</text></g><g stroke-linecap="round"><g transform="translate(1706 504) rotate(0 65.20290293004132 -89.9095954471035)"><path d="M-0.19 0.07 C20.97 -17.5, 108.52 -74.6, 126.72 -104.29 C144.93 -133.97, 111.88 -165.43, 109.06 -178.05 M-1.74 -0.94 C19.25 -18.34, 107.35 -76.21, 125.63 -106.04 C143.91 -135.86, 110.52 -167.65, 107.93 -179.89" stroke="#000000" stroke-width="1" fill="none"></path></g><g transform="translate(1706 504) rotate(0 65.20290293004132 -89.9095954471035)"><path d="M130.41 -160.35 C125 -166.69, 119.1 -171.07, 106.24 -180.94 M130.34 -159.87 C123.69 -165.74, 116.6 -171.82, 106.98 -180.61" stroke="#000000" stroke-width="1" fill="none"></path></g><g transform="translate(1706 504) rotate(0 65.20290293004132 -89.9095954471035)"><path d="M112.32 -150.65 C111.91 -159.7, 111.11 -166.81, 106.24 -180.94 M112.25 -150.18 C111.51 -159.27, 110.27 -168.47, 106.98 -180.61" stroke="#000000" stroke-width="1" fill="none"></path></g></g><g stroke-linecap="round" transform="translate(664 111) rotate(0 315 68.5)"><path d="M0.5 0.29 C249.14 1.39, 497.31 1.28, 629.21 -0.45 M-0.38 -0.39 C205.15 0.84, 410.67 0.36, 629.95 -0.4 M630.11 -0.19 C627.34 30.81, 631.04 59.83, 630.57 138.91 M630.71 -0.26 C630.42 38.86, 629.78 78.14, 630.18 137.09 M629.4 136.81 C501.4 136.78, 372.68 137.5, -0.49 136.96 M630.14 137.23 C401.19 137.39, 171.93 137.18, 0.23 136.73 M0.77 137.69 C0.96 97.13, 1.46 56.28, 0 0.76 M0.46 137.71 C0.88 89.98, 0.11 41.72, -0.44 -0.77" stroke="#000000" stroke-width="1" fill="none"></path></g><g transform="translate(990 133) rotate(0 140 12)"><text x="0" y="17" font-family="Helvetica, Segoe UI Emoji" font-size="20px" fill="#000000" text-anchor="start" style="white-space: pre;" direction="ltr">Github Workflow (les: pipelines)</text></g><g stroke-linecap="round" transform="translate(337 67) rotate(0 111 29.500000000000007)"><path d="M0 0 C0 0, 0 0, 0 0 M0 0 C0 0, 0 0, 0 0 M-0.88 6.25 C1.92 4.18, 3.48 3.05, 4.41 0.11 M0.07 6.57 C2.1 4.46, 4.15 1.58, 5.26 0.15 M0.82 10.53 C1.61 8.82, 4.73 5.24, 9.2 -0.22 M0 11.66 C2.58 8.97, 5.12 7.19, 10.08 -0.67 M0.66 18.26 C2.58 12.86, 6.79 10.16, 17.41 -1.13 M-0.25 18.3 C2.73 13.51, 6.98 9.43, 14.82 -0.56 M-0.32 23.8 C7.81 15.38, 12.05 9.03, 21.88 1.26 M0.44 23.33 C7.87 14.76, 15.65 5.61, 20.72 0.13 M-0.74 30.15 C6.07 20.4, 17.7 11.09, 26.72 1.81 M-0.52 29.75 C8.41 20.49, 16.72 11.64, 25.39 0.11 M0.07 35.28 C9.99 24.01, 22.65 8.36, 33.66 -1.84 M0.74 36.27 C7.71 28.01, 15.74 17.19, 32.16 -0.35 M0.4 43.82 C11.95 30.82, 21.61 17.16, 36.52 -1.48 M-0.49 41.53 C12.84 29.03, 24.8 14.21, 37.55 0.55 M-1.71 47.28 C15.52 33.3, 29.46 16.26, 42.64 1.51 M-0.53 48.43 C12.97 34.06, 25.1 19.47, 43.5 0.12 M0.28 52.58 C13.02 37.54, 28.75 23.71, 47.69 0.13 M0.21 54.9 C10.67 42.15, 22.2 30.81, 47.07 -0.66 M0.94 61.22 C10.66 48.74, 23.05 33.9, 53.11 1.54 M1.55 59.27 C19.84 35.96, 40.21 13.62, 52.57 -1.17 M6.84 58.12 C22.49 41.81, 39.18 20.5, 56.91 -1.01 M6.42 59.24 C16.47 45.96, 28.39 33.61, 57.32 0.99 M11.64 61.09 C25.01 45.48, 37.01 30.29, 63.14 -0.33 M10.65 59.6 C31.34 37.61, 50.15 15.35, 63.78 -0.02 M18.6 61.62 C35.63 34.5, 57.23 12.76, 68.67 0.62 M16.37 59.14 C30.22 43.74, 45.21 28.42, 69.28 -0.11 M22.8 62.01 C41.92 37.17, 60.46 17.01, 72.63 0.53 M21.03 60.02 C37.67 40.02, 56.59 21.57, 74.15 0.68 M28.61 59.25 C40.67 41.63, 58.44 24.29, 79.27 -0.27 M27.62 59.85 C47.9 37.12, 67.16 14.29, 79.49 0.35 M32.48 60.92 C49.5 41.76, 66.69 20.19, 83.3 -0.07 M32.36 59.72 C48.47 42.48, 64.28 24.33, 85.28 -1.07 M36.35 61.05 C55.54 40.95, 69.82 20.78, 88.83 0.21 M38.88 60.27 C54.84 41.13, 70.05 22.21, 90.11 0.59 M42.54 59.98 C60.9 37.93, 80.07 16.95, 94.68 0.84 M43.92 59.77 C59.53 42.21, 74.58 23.25, 95.36 -0.34 M47.08 60.27 C65.6 37.51, 84.91 15.46, 101.29 -0.85 M49.48 60.18 C59.66 45.48, 71.38 33.64, 100.88 0.73 M54.66 58.52 C72.63 39.26, 88.49 21.88, 108.09 1.45 M54.58 59.19 C64.27 48.47, 74.53 35.58, 107.19 -1.31 M59.9 61.32 C72.77 42.48, 85.74 28.13, 112.38 -1.17 M59.35 60.29 C72.32 45.33, 83.34 30.99, 111.15 0.8 M66.33 61.07 C76.25 49.22, 87.86 34.03, 118.04 -0.13 M64.8 60.87 C84.33 36.72, 105.09 14.41, 115.5 -0.49 M71.69 59.84 C81.47 43.64, 97.46 31.78, 121.67 -1.3 M70.99 60.21 C88.58 40.3, 105.24 18.68, 121.85 0.73 M74.86 61.33 C85.01 48.65, 95.82 35.67, 126.79 -0.83 M74.66 59.62 C89.81 42.73, 104.59 26.15, 127.59 0.24 M81.18 58.62 C95.53 44.93, 106.13 27.87, 132.52 -0.58 M81.5 60.44 C91.98 46.43, 103.15 34.97, 133.5 0.37 M85.37 58.19 C96.37 45.75, 109.9 35.48, 136.46 -0.18 M85.78 60.15 C100.87 44.12, 113.41 27.35, 137.36 0.18 M92.89 59.66 C101.71 44.65, 112.67 32.7, 144.1 -1.19 M90.58 60.4 C101.71 46.52, 113.56 32.71, 142.22 -0.55 M94.8 59.76 C111.1 41.45, 126.67 25.15, 147.65 0.76 M95.43 59.1 C114.45 39.2, 132.6 18.5, 148 0.79 M101.15 60.13 C122.89 35.57, 142.74 13.54, 155.43 -0.11 M102.54 60.43 C114.77 44.75, 125.4 31.5, 153.73 -0.36 M107.87 59.29 C123.58 41.28, 136.58 23.28, 158.75 0.11 M106.45 58.98 C123.23 41.19, 139.16 22.5, 159.25 0.41 M113.46 61.15 C124.17 44.94, 138.8 28.13, 165.29 -1.11 M111.59 60.5 C131.88 37.34, 151.62 14.37, 165.34 0.49 M117.15 59.24 C128.51 45.82, 141.88 34.06, 169.97 -0.83 M117.25 60.23 C133.21 40.53, 150.6 21.17, 169.47 0.32 M121.09 60.78 C141.73 36.08, 164.07 11.61, 176.31 1.19 M122.53 59.24 C139.97 40.45, 157.19 20.55, 175.95 -0.54 M127.01 59.28 C148.51 37.5, 168.18 14.06, 179.34 -1.58 M127.88 59.19 C145.77 40.52, 161.99 20.67, 179.62 0.67 M135.16 58.49 C153.15 38.28, 167.47 16.88, 186.92 1.38 M132.78 60.45 C154.94 36.31, 173.73 12.15, 186.06 -0.07 M137.62 60.22 C158.68 38.32, 177.17 13.58, 190.69 1.56 M137.95 60.11 C155.63 40.54, 170.24 22.82, 191.23 0.55 M145.25 60.23 C157.63 45.4, 170.63 29.93, 195.36 -0.76 M143 60.08 C154.19 48.34, 166.03 34.44, 195.74 -0.82 M148.99 60.1 C168.73 37.31, 189.37 12.62, 201.67 -0.56 M148.67 59.14 C168.83 36.03, 190.46 13.1, 200.45 -0.07 M154.77 59.11 C174.63 35.59, 193.79 13.42, 207.69 -0.28 M154.46 60.99 C169.73 43.06, 185.17 27.05, 206.7 0.39 M160.91 58.12 C178.03 42.32, 191.24 24.35, 211.75 -1.89 M160.86 60.33 C176.05 41.27, 190.19 23.27, 211.99 -0.29 M164.94 59.43 C185.82 37.69, 203.8 17.41, 217.78 0.97 M165.01 60.93 C176.04 46.91, 188.03 33.4, 218.19 0.65 M169 58.68 C184.25 43.97, 199.03 27.2, 222.2 -1.17 M170.91 59.66 C189.98 37.82, 210.58 14.14, 223.19 -0.33 M174.76 60.69 C185.02 48.05, 199.19 37.26, 221.4 5.11 M175.1 60.59 C189.48 42.77, 204.72 24.84, 223.2 5.75 M180.7 59.36 C191.7 44.71, 206.99 29.67, 220.95 10.85 M180.83 59 C194.96 43.33, 210.06 28.31, 222.81 13.34 M185.08 61.56 C197.73 47.7, 207.51 36.74, 221.35 19.17 M185.77 59.52 C199.56 44.33, 212.33 29.43, 221.5 19.08 M191.25 58.95 C199.98 51.03, 207.51 41.33, 220.72 24.19 M192.2 60.12 C200.06 49.46, 208.1 39.69, 223.17 24.76 M198.55 59.91 C205.6 49.5, 212.32 44.18, 223.54 31.57 M196.66 60.22 C202.1 53.62, 208.43 45.79, 221.73 30.17 M203.7 61.39 C209.03 56, 210.62 47.92, 223.55 38.43 M202.2 58.71 C209.52 53.37, 215.73 46.55, 222.72 37.17 M207.64 60.79 C213.89 55.54, 214.21 49.34, 220.43 41.95 M208 60.07 C211.62 54.68, 215.66 50.42, 222.89 42.48 M213.03 59.74 C214.4 56.47, 217.34 55.56, 222.12 47.96 M213.51 60.1 C215.55 55.99, 218.95 52.63, 222.94 48.29 M218.36 60.05 C219.26 58.98, 220.53 56.51, 222.21 55.81 M218.36 59.72 C219.43 58.12, 220.99 56.68, 222 55.29" stroke="#82c91e" stroke-width="0.5" fill="none"></path><path d="M0.42 -0.49 C76.04 1.07, 154.05 -2.12, 220.28 0.59 M0.42 -0.15 C82.81 2.08, 164.73 2.39, 221.59 -0.62 M223.68 1.73 C221.36 18.71, 222.3 34.4, 223.25 57.55 M222.28 0.6 C222.01 14.67, 221.02 29.87, 221.05 59.27 M220.85 58.32 C167.59 56.99, 110.4 57.1, 0.72 57.73 M221.4 59.52 C156.09 57.93, 89.17 57.94, -0.78 58.88 M-0.31 59.19 C-0.51 48.83, 0.19 35.15, 1.52 -0.76 M-0.85 58.52 C-0.78 46.6, 0.13 33.18, 0.95 0.16" stroke="#000000" stroke-width="1" fill="none"></path></g><g transform="translate(351 68.5) rotate(0 71.5 13)"><text x="0" y="18" font-family="Virgil, Segoe UI Emoji" font-size="20px" fill="#000000" text-anchor="start" style="white-space: pre;" direction="ltr">skeleton-app X</text></g><g transform="translate(364 96.5) rotate(0 33.5 12)"><text x="0" y="17" font-family="Helvetica, Segoe UI Emoji" font-size="20px" fill="#000000" text-anchor="start" style="white-space: pre;" direction="ltr">git repo</text></g><g stroke-linecap="round" transform="translate(335 172) rotate(0 121.5 29.5)"><path d="M0 0 C0 0, 0 0, 0 0 M0 0 C0 0, 0 0, 0 0 M-0.31 6.5 C1.2 5.25, 2.12 2.51, 5.05 0.57 M-0.19 6.22 C0.98 4.73, 2.97 3.18, 4.69 0.4 M-0.63 13.35 C3.6 8.88, 5.65 5.51, 10.69 0.41 M0.65 11.46 C3.4 8.67, 5.68 5.08, 10.42 -0.21 M-1.16 18.81 C4.99 11.72, 10.19 6.4, 13.62 -0.41 M-0.01 19.28 C3.8 14.17, 8.33 8.29, 14.9 0.1 M1.65 24.61 C6.14 17.76, 14.58 5.71, 20.9 0.92 M-0.08 25.06 C5.28 16.62, 11.74 9.65, 20.78 0.59 M-1.74 31.13 C6.92 25.51, 9.75 17.08, 27.96 1.95 M0.51 30.9 C6.73 22.05, 15.66 12.59, 27.1 -0.32 M1.35 38.77 C6.5 31.05, 12.38 22.16, 33.82 0.86 M-0.1 37.64 C7.21 28.5, 12.31 21.77, 32.33 0.21 M1.56 42.66 C9.85 30.52, 20.37 18.27, 37.69 -1.3 M0.56 42 C7.79 33.17, 16.33 24.65, 37.24 0.3 M-0.62 47.09 C15.62 32.59, 26.99 16.05, 42.1 1.48 M-0.68 49.74 C15.43 31.93, 31.27 13.24, 42.11 0.27 M-0.39 56.28 C13.62 37.16, 27.26 20.71, 45.53 -1.65 M0.11 55.35 C17.84 36.11, 35.2 15.01, 47.63 -0.36 M0.68 59.86 C14.53 42.94, 29.76 28.48, 53.53 -0.31 M1.35 60.21 C19.47 36.94, 40.45 13.57, 54.14 0.01 M4.36 59.87 C22.02 42.68, 36.7 27.79, 59.37 -0.76 M5.95 60.54 C16.37 46.67, 27.63 35.13, 58.49 0.01 M12.59 58.59 C25.24 44.77, 37.43 30.97, 63.11 0.23 M12.27 59.89 C26.93 42, 42.69 22.22, 63.33 0.26 M15.74 61.44 C32.99 41.46, 46.96 25.6, 68.29 1.52 M16.58 59.03 C34.35 38.88, 52.89 17.98, 67.93 0.29 M20.61 60.5 C43.82 36.9, 62.12 13.28, 73.01 -0.32 M21.24 60.12 C36.74 44.14, 50.63 26.77, 73.51 -0.54 M25.59 60.57 C46.57 37.38, 64.99 15.05, 78.57 -0.84 M28.09 59.67 C47.98 36.09, 66.08 14.78, 79.99 -0.04 M33.26 61.31 C47.13 41.18, 64.69 20.84, 84.6 -1.61 M33.16 59.5 C46.22 45.49, 59.26 29.55, 85.4 -0.36 M37.52 59.38 C58.75 40.43, 75.47 19.25, 89.67 -0.08 M38.09 59.61 C50.09 45.07, 62.88 31.69, 90.61 -0.91 M44.24 58.54 C59.7 41.65, 75.93 21.5, 94.44 0.54 M42.84 59.22 C58.56 43.22, 75.58 25.35, 96.66 0.42 M50.35 59.8 C62.64 42.59, 76.06 25.93, 102.24 1.4 M49.09 59.6 C68.12 36.57, 89.56 12.52, 101.61 0.35 M52.47 59.53 C63.96 47.03, 75.8 36.61, 106.26 -1.87 M53 59.08 C70.74 40.92, 85.98 22.88, 105.81 -0.98 M58.05 59.58 C76.85 40.92, 93.81 22.54, 110.11 -1.01 M58.52 59.97 C77.09 38.63, 95.04 19.39, 110.75 1 M66.01 61.42 C76.97 44.3, 90.45 30.28, 114.33 -0.28 M64.24 59.48 C76.24 46.68, 89.33 32.92, 115.66 0.98 M69.81 60.27 C86.02 39.13, 106.59 17.56, 120.3 1.91 M70.69 58.66 C84.56 44.39, 97.17 27.24, 121.68 0.91 M74.14 59.19 C86.18 46.67, 96.2 33.07, 126.1 -0.59 M75.12 59.37 C90.17 41.01, 107.14 23.54, 127.87 1.22 M82 59.24 C96.28 42, 109.62 23.22, 133.02 1.17 M80.84 59.19 C99.55 38.65, 118.1 18.12, 131.95 0.5 M87.33 61.6 C96 47.11, 107.1 36.35, 138.2 1.4 M86.05 60.35 C95.33 48.29, 107.01 36.64, 137.05 0.47 M90.16 57.67 C113.69 34.24, 133.94 14.28, 141.68 1.63 M91.1 58.69 C109 38.76, 126.09 17.87, 143.04 0.84 M97.22 59.23 C113.5 37.94, 130.64 19.27, 147.12 0.92 M95.37 60.58 C109.3 44.13, 122.67 28.76, 147.37 0.33 M101.04 60.55 C121.53 34.43, 144.61 13.78, 152.85 -2.08 M102.52 59.87 C118.43 40.05, 135.62 21.9, 154.32 -0.45 M108.64 60.5 C123.22 42.75, 139.4 24.61, 160.54 1.03 M107.35 60.82 C121.17 44.17, 134.35 27.73, 157.89 -0.02 M111.92 61.44 C126.08 44.59, 141.73 26.63, 166.31 -1.49 M112.4 59.79 C130.8 38.91, 147.69 19.86, 165.06 -1.14 M115.62 59.61 C127.7 46.7, 139.41 33.49, 169.34 0.61 M118.11 60.42 C133.86 42.4, 148.56 25.26, 168.61 0.19 M121.22 59.46 C132.56 49.18, 147.61 35.53, 175.02 1.67 M122.89 60.84 C132.56 48.15, 144.62 35.98, 174.45 -0.39 M129.37 60.58 C144.47 40.37, 158.35 25.03, 179.56 -1.68 M127.74 59.33 C142.55 44.9, 155.76 28.55, 180.41 -0.65 M132.58 59.79 C149.66 39.96, 166.37 20.09, 185.12 -0.51 M133.11 59.28 C148.55 42.47, 164.05 24.97, 185.57 -0.8 M138.28 61.26 C154.44 42.66, 166.9 27.03, 192.44 0.66 M138.19 60.1 C155.04 41.24, 171.5 21.78, 191.08 -0.59 M145.5 58.66 C165.1 36.38, 185.35 14.69, 195.96 -2.12 M143.72 60.2 C163.19 37.12, 182.38 15.95, 195.43 -0.36 M147.95 61.29 C169 35.94, 189.66 15.55, 200.42 1.94 M149.33 59.86 C166.6 38.92, 184.13 18.42, 201.32 -0.08 M154.66 60.15 C171.38 41.61, 184.71 23.88, 208.04 0.53 M154.31 60.27 C168.01 45.17, 182.48 29.26, 206.93 -0.45 M161.13 58.13 C175.39 44.99, 186.64 25.37, 211.11 0.28 M160.94 60.35 C179.56 35.94, 201.51 11.94, 212.74 0.05 M165.93 60.11 C183.13 35.74, 205.25 15.54, 219.09 0.97 M165.34 59.77 C179.37 44.99, 191.93 27.86, 216.87 0.12 M169.8 59.06 C191.62 38.14, 210.48 15.7, 223.31 1.61 M170.71 59.87 C183.72 44.27, 196.31 31.12, 221.85 0.54 M176.35 58.22 C194.68 38.87, 213.46 16.39, 228 -1.44 M176.21 60.59 C195.38 37.04, 214.41 16.3, 227.98 -0.86 M183.1 61.17 C200.44 37.88, 219.71 16.18, 235.01 -0.33 M182.22 59.37 C195.84 42.44, 211.32 24.96, 234.08 -0.28 M186.17 57.98 C205.4 38.17, 223.16 18.87, 238.2 -0.83 M187.21 60.17 C203.65 40.74, 221.27 19.88, 238.21 -0.24 M191.37 59.35 C204.88 46.45, 214.14 33.03, 242.74 0.77 M192.98 60.33 C204.47 46.08, 215.63 32.89, 243.08 0.29 M198.82 58.7 C208.12 45.42, 216.22 35.16, 243.03 6.32 M197.54 59.58 C212.41 43.24, 227.35 26.05, 244.16 5.47 M202.12 58.31 C219.24 41.94, 232.45 25.39, 241.68 12.84 M202.38 58.88 C218.27 41.39, 233.98 24.76, 242.9 12.34 M208.92 59.49 C217.77 46.65, 226.55 38.76, 244.28 17.51 M207.31 59.46 C221.75 44.58, 234.1 28.76, 243.61 18.62 M212.07 60.59 C219.73 51.66, 227.19 44.68, 245.23 25.75 M213.74 59.7 C222.43 47.79, 233.07 36.63, 243.52 25.67 M218.26 59.28 C226.05 48.26, 238.01 37.47, 242.21 30.07 M217.52 60.08 C227.71 49.65, 237.46 37.52, 243.48 32.09 M223.11 58.52 C228.07 55.21, 231.31 48.91, 244.12 36.49 M224.26 60.09 C230.96 52.89, 236.64 44.48, 244 36.98 M227.84 60.81 C236.53 54.85, 240.34 46.69, 242.95 42.88 M228.1 59.25 C233.98 55.04, 237.92 49.49, 243.35 43.12 M233.73 59.3 C236.61 56.95, 239.11 53.74, 244.14 49.61 M234.28 60.57 C236.22 56.96, 240.02 53.45, 244.12 48.67 M239.01 59.46 C240.76 58.21, 242.49 56.44, 243.58 55.17 M239.62 59.99 C240.75 58.39, 242.44 56.61, 243.23 55.44" stroke="#fd7e14" stroke-width="0.5" fill="none"></path><path d="M-0.44 -1.43 C64.04 -1.06, 131.89 1.48, 242.53 -1.2 M0.35 -0.74 C67.4 -1.87, 135.77 -2.63, 242.72 -0.65 M242.52 -0.66 C242.05 23.49, 243.37 47.21, 244.95 59.29 M242.88 -0.9 C242.56 16.58, 243.36 31.5, 242.73 58.04 M242.08 57.71 C176.96 60.71, 107.15 61.37, -1.14 59.76 M242.62 59.07 C178.99 56.32, 112.99 57.01, -0.29 58.77 M0.49 60.06 C-0.09 44.34, -2.25 28.52, -0.14 0.57 M0.52 59.97 C-0.04 42.26, -0.78 26.26, 0.26 -0.18" stroke="#000000" stroke-width="1" fill="none"></path></g><g transform="translate(349 173.5) rotate(0 110 13)"><text x="0" y="18" font-family="Virgil, Segoe UI Emoji" font-size="20px" fill="#000000" text-anchor="start" style="white-space: pre;" direction="ltr">sommerstudent-daemon</text></g><g transform="translate(362 201.5) rotate(0 33.5 12)"><text x="0" y="17" font-family="Helvetica, Segoe UI Emoji" font-size="20px" fill="#000000" text-anchor="start" style="white-space: pre;" direction="ltr">git repo</text></g><g stroke-linecap="round" transform="translate(318 10) rotate(0 139.5 120.5)"><path d="M-0.19 1.07 C96.62 0.29, 189.59 0.73, 278.67 -0.18 M-0.24 -0.69 C89.94 -1.55, 178.01 -1.68, 279.65 0.22 M280.47 -0.59 C279.23 57.19, 276.8 113.44, 278.58 240.76 M278.36 0.05 C276.92 62.04, 277.5 124.03, 279.2 241.01 M279.1 240.34 C222.29 242.36, 161.52 242.04, 0.38 240.57 M278.28 240.24 C212.6 241.37, 145.4 240.19, 0.37 240.86 M1.54 240.21 C-2.31 151.97, -1.04 61.91, 1.4 1.44 M-0.82 241.52 C-1.12 176.32, -0.59 112.67, 0.24 0.5" stroke="#000000" stroke-width="1" fill="none"></path></g><g transform="translate(341 22.5) rotate(0 111 12)"><text x="0" y="17" font-family="Helvetica, Segoe UI Emoji" font-size="20px" fill="#000000" text-anchor="start" style="white-space: pre;" direction="ltr">https://github.com/navikt/</text></g><g stroke-linecap="round"><g transform="translate(204 386) rotate(0 63.14167519286278 -148.4101409816882)"><path d="M-1.08 -0.39 C7.73 -18.28, 32.03 -57.36, 53.43 -106.36 C74.84 -155.36, 115.13 -263.08, 127.37 -294.4 M0.55 -1.65 C9.11 -19.45, 31.15 -55.88, 52.19 -105.01 C73.23 -154.14, 114.32 -264.52, 126.8 -296.43" stroke="#0b7285" stroke-width="1" fill="none"></path></g><g transform="translate(204 386) rotate(0 63.14167519286278 -148.4101409816882)"><path d="M125.65 -267.37 C125.64 -276.15, 127.41 -287.36, 128.05 -295.69 M126.32 -266.47 C126.89 -277.96, 125.94 -289.32, 127.19 -297.15" stroke="#0b7285" stroke-width="1" fill="none"></path></g><g transform="translate(204 386) rotate(0 63.14167519286278 -148.4101409816882)"><path d="M106.48 -274.7 C113.14 -280.78, 121.51 -289.46, 128.05 -295.69 M107.16 -273.79 C114.95 -282.33, 121.26 -290.91, 127.19 -297.15" stroke="#0b7285" stroke-width="1" fill="none"></path></g></g><g stroke-linecap="round"><g transform="translate(281 494) rotate(0 32.7377523946264 -131.94496800228956)"><path d="M0.05 0.92 C9.74 -7.37, 48.48 -6.41, 59.25 -50.69 C70.03 -94.98, 63.73 -229.1, 64.69 -264.81 M-1.38 0.35 C8.6 -7.7, 50.72 -5.48, 61.57 -49.52 C72.43 -93.56, 63.14 -228.11, 63.76 -263.91" stroke="#0b7285" stroke-width="1" fill="none"></path></g><g transform="translate(281 494) rotate(0 32.7377523946264 -131.94496800228956)"><path d="M76.23 -237.22 C69.49 -247.44, 65.01 -257.81, 62.19 -263.04 M74.48 -235.29 C71.44 -244.31, 67.61 -253.67, 62.91 -264.3" stroke="#0b7285" stroke-width="1" fill="none"></path></g><g transform="translate(281 494) rotate(0 32.7377523946264 -131.94496800228956)"><path d="M55.72 -236.72 C57.02 -247.15, 60.59 -257.71, 62.19 -263.04 M53.96 -234.79 C57.49 -243.88, 60.22 -253.4, 62.91 -264.3" stroke="#0b7285" stroke-width="1" fill="none"></path></g></g><g transform="translate(361 329.5) rotate(0 89 36)"><text x="0" y="17" font-family="Helvetica, Segoe UI Emoji" font-size="20px" fill="#000000" text-anchor="start" style="white-space: pre;" direction="ltr">Git push;</text><text x="0" y="41" font-family="Helvetica, Segoe UI Emoji" font-size="20px" fill="#000000" text-anchor="start" style="white-space: pre;" direction="ltr">Gi &lt;skeleton-app x&gt;</text><text x="0" y="65" font-family="Helvetica, Segoe UI Emoji" font-size="20px" fill="#000000" text-anchor="start" style="white-space: pre;" direction="ltr">tilgang p topic</text></g><g transform="translate(53 142.5) rotate(0 108 48)"><text x="216" y="17" font-family="Helvetica, Segoe UI Emoji" font-size="20px" fill="#000000" text-anchor="end" style="white-space: pre;" direction="ltr">Git push;</text><text x="216" y="41" font-family="Helvetica, Segoe UI Emoji" font-size="20px" fill="#000000" text-anchor="end" style="white-space: pre;" direction="ltr">Fyll inn manglende kode</text><text x="216" y="65" font-family="Helvetica, Segoe UI Emoji" font-size="20px" fill="#000000" text-anchor="end" style="white-space: pre;" direction="ltr"></text><text x="216" y="89" font-family="Helvetica, Segoe UI Emoji" font-size="20px" fill="#000000" text-anchor="end" style="white-space: pre;" direction="ltr">Les README.md</text></g><g stroke-linecap="round"><g transform="translate(571 107) rotate(0 144.70385673716663 120.99646764694246)"><path d="M-0.63 0.19 C30.47 14.11, 138.57 42.04, 187.01 82.47 C235.45 122.89, 272.95 216.05, 290.03 242.74 M1.25 -0.75 C32.24 12.89, 138.59 40.33, 186.59 80.59 C234.6 120.85, 272.14 214.15, 289.29 240.79" stroke="#5f3dc4" stroke-width="1" fill="none"></path></g><g transform="translate(571 107) rotate(0 144.70385673716663 120.99646764694246)"><path d="M267.29 222.43 C275.04 227.63, 282.97 233.43, 290.36 242.33 M266.88 220.5 C273.93 227.52, 279.7 231.71, 289.22 241.56" stroke="#5f3dc4" stroke-width="1" fill="none"></path></g><g transform="translate(571 107) rotate(0 144.70385673716663 120.99646764694246)"><path d="M285.39 212.77 C287.01 221.11, 288.88 230.14, 290.36 242.33 M284.99 210.84 C286.69 220.65, 287.18 227.66, 289.22 241.56" stroke="#5f3dc4" stroke-width="1" fill="none"></path></g></g><g stroke-linecap="round"><g transform="translate(586 212) rotate(0 289.15121088796764 62.705288538442005)"><path d="M1.12 0.92 C75.4 0.94, 349.85 -22.07, 446 0.12 C542.16 22.31, 556.21 111.47, 578.05 134.07 M0.25 0.35 C74.86 0.51, 352.02 -21.23, 448.19 1.19 C544.37 23.62, 555.87 112.84, 577.31 134.9" stroke="#5f3dc4" stroke-width="1" fill="none"></path></g><g transform="translate(586 212) rotate(0 289.15121088796764 62.705288538442005)"><path d="M556.14 113.62 C560.63 121.62, 568.03 126.44, 578.51 136.52 M555.42 116.24 C562.93 122.15, 572.15 129.96, 577.74 135.35" stroke="#5f3dc4" stroke-width="1" fill="none"></path></g><g transform="translate(586 212) rotate(0 289.15121088796764 62.705288538442005)"><path d="M574.07 103.62 C572.64 115.09, 574.13 123.2, 578.51 136.52 M573.34 106.24 C574.04 115.85, 576.53 127.4, 577.74 135.35" stroke="#5f3dc4" stroke-width="1" fill="none"></path></g></g><g transform="translate(675 122.5) rotate(0 31 12)"><text x="0" y="17" font-family="Helvetica, Segoe UI Emoji" font-size="20px" fill="#000000" text-anchor="start" style="white-space: pre;" direction="ltr">Deploy</text></g><g transform="translate(676 215.5) rotate(0 31 12)"><text x="0" y="17" font-family="Helvetica, Segoe UI Emoji" font-size="20px" fill="#000000" text-anchor="start" style="white-space: pre;" direction="ltr">Deploy</text></g><g transform="translate(684 329.5) rotate(0 41 12.5)"><text x="0" y="20" font-family="Cascadia, Segoe UI Emoji" font-size="20px" fill="#000000" text-anchor="start" style="white-space: pre;" direction="ltr">dev-gcp</text></g><g stroke-linecap="round"><g transform="translate(48 577) rotate(0 100.38702979052442 0.42501840298996285)"><path d="M1.16 -0.2 C34.52 0.3, 167.26 1.79, 200.46 2.2 M0.32 -1.35 C33.52 -1.17, 166.51 -0.65, 199.75 0.18" stroke="#000000" stroke-width="1" fill="none"></path></g></g></svg>
